<?xml version="1.0" encoding="UTF-8" standalone="no"?>
<!-- Created with Inkscape (http://www.inkscape.org/) -->

<svg
   version="1.1"
   id="svg2"
   xml:space="preserve"
   width="666.66669"
   height="666.66669"
   viewBox="0 0 666.66669 666.66669"
   sodipodi:docname="2822504.ai"
   xmlns:inkscape="http://www.inkscape.org/namespaces/inkscape"
   xmlns:sodipodi="http://sodipodi.sourceforge.net/DTD/sodipodi-0.dtd"
   xmlns="http://www.w3.org/2000/svg"
   ><defs
     id="defs6"><clipPath
       clipPathUnits="userSpaceOnUse"
       id="clipPath16"><path
         d="M 0,500 H 500 V 0 H 0 Z"
         id="path14" /></clipPath><clipPath
       clipPathUnits="userSpaceOnUse"
       id="clipPath32"><path
         d="M 0,500 H 500 V 0 H 0 Z"
         id="path30" /></clipPath><clipPath
       clipPathUnits="userSpaceOnUse"
       id="clipPath56"><path
         d="M 0,500 H 500 V 0 H 0 Z"
         id="path54" /></clipPath><clipPath
       clipPathUnits="userSpaceOnUse"
       id="clipPath84"><path
         d="M 118.192,153.057 H 134.44 V 141.77 h -16.248 z"
         id="path82" /></clipPath><clipPath
       clipPathUnits="userSpaceOnUse"
       id="clipPath100"><path
         d="m 134.44,164.783 h 36.558 V 141.77 H 134.44 Z"
         id="path98" /></clipPath><clipPath
       clipPathUnits="userSpaceOnUse"
       id="clipPath120"><path
         d="m 111.898,182.489 h 16.248 v -11.288 h -16.248 z"
         id="path118" /></clipPath><clipPath
       clipPathUnits="userSpaceOnUse"
       id="clipPath136"><path
         d="m 128.146,194.214 h 36.558 v -23.013 h -36.558 z"
         id="path134" /></clipPath><clipPath
       clipPathUnits="userSpaceOnUse"
       id="clipPath156"><path
         d="m 105.604,211.92 h 16.248 v -11.287 h -16.248 z"
         id="path154" /></clipPath><clipPath
       clipPathUnits="userSpaceOnUse"
       id="clipPath172"><path
         d="M 121.852,223.646 H 158.41 V 200.633 H 121.852 Z"
         id="path170" /></clipPath><clipPath
       clipPathUnits="userSpaceOnUse"
       id="clipPath192"><path
         d="m 115.558,253.077 h 36.558 v -23.013 h -36.558 z"
         id="path190" /></clipPath><clipPath
       clipPathUnits="userSpaceOnUse"
       id="clipPath208"><path
         d="M 99.3098,241.351 H 115.558 V 230.064 H 99.3098 Z"
         id="path206" /></clipPath><clipPath
       clipPathUnits="userSpaceOnUse"
       id="clipPath228"><path
         d="m 109.264,282.509 h 36.558 v -23.014 h -36.558 z"
         id="path226" /></clipPath><clipPath
       clipPathUnits="userSpaceOnUse"
       id="clipPath244"><path
         d="M 83.4089,276.326 H 109.264 V 259.495 H 83.4089 Z"
         id="path242" /></clipPath><clipPath
       clipPathUnits="userSpaceOnUse"
       id="clipPath268"><path
         d="M 0,500 H 500 V 0 H 0 Z"
         id="path266" /></clipPath><clipPath
       clipPathUnits="userSpaceOnUse"
       id="clipPath304"><path
         d="M 0,500 H 500 V 0 H 0 Z"
         id="path302" /></clipPath><clipPath
       clipPathUnits="userSpaceOnUse"
       id="clipPath316"><path
         d="m 169.602,474.943 h 137.45 v -79.377 h -137.45 z"
         id="path314" /></clipPath><clipPath
       clipPathUnits="userSpaceOnUse"
       id="clipPath332"><path
         d="m 168.962,400.256 h 9.79 V 218.43 h -9.79 z"
         id="path330" /></clipPath><clipPath
       clipPathUnits="userSpaceOnUse"
       id="clipPath404"><path
         d="M 0,500 H 500 V 0 H 0 Z"
         id="path402" /></clipPath><clipPath
       clipPathUnits="userSpaceOnUse"
       id="clipPath484"><path
         d="m 349.359,286.856 h 30.294 v -42.123 h -30.294 z"
         id="path482" /></clipPath><clipPath
       clipPathUnits="userSpaceOnUse"
       id="clipPath520"><path
         d="m 390.97,184.885 h 34.452 v -24.59 H 390.97 Z"
         id="path518" /></clipPath><clipPath
       clipPathUnits="userSpaceOnUse"
       id="clipPath536"><path
         d="m 396.01,184.885 h 24.372 v -5.531 H 396.01 Z"
         id="path534" /></clipPath><clipPath
       clipPathUnits="userSpaceOnUse"
       id="clipPath560"><path
         d="m 390.962,206.562 h 34.468 v -19.9 h -34.468 z"
         id="path558" /></clipPath><clipPath
       clipPathUnits="userSpaceOnUse"
       id="clipPath576"><path
         d="m 404.846,154.816 h 6.718 v -54.642 h -6.718 z"
         id="path574" /></clipPath><clipPath
       clipPathUnits="userSpaceOnUse"
       id="clipPath592"><path
         d="m 416.77,157.026 h 5.818 v -55.017 h -5.818 z"
         id="path590" /></clipPath><clipPath
       clipPathUnits="userSpaceOnUse"
       id="clipPath608"><path
         d="m 393.822,157.026 h 5.818 v -55.017 h -5.818 z"
         id="path606" /></clipPath><clipPath
       clipPathUnits="userSpaceOnUse"
       id="clipPath644"><path
         d="M 0,500 H 500 V 0 H 0 Z"
         id="path642" /></clipPath></defs><sodipodi:namedview
     id="namedview4"
     pagecolor="#ffffff"
     bordercolor="#666666"
     borderopacity="1.0"
     inkscape:pageshadow="2"
     inkscape:pageopacity="0.0"
     inkscape:pagecheckerboard="0" /><g
     id="g8"
     inkscape:groupmode="layer"
     inkscape:label="2822504"
     transform="matrix(1.3333333,0,0,-1.3333333,0,666.66667)"><g
       id="g10"><g
         id="g12"
         clip-path="url(#clipPath16)"><g
           id="g18"
           transform="translate(89.0465,62.8992)"><path
             d="m 0,0 c 87.263,-46.014 228.742,-46.014 316.002,0 87.261,46.014 87.261,120.617 0,166.631 C 228.742,212.645 87.263,212.645 0,166.631 -87.263,120.617 -87.263,46.014 0,0"
             style="fill:#f5f5f5;fill-opacity:1;fill-rule:nonzero;stroke:none"
             id="path20" /></g></g></g><g
       id="g22"
       transform="translate(163.5154,142.7038)"><path
         d="m 0,0 2.614,3.12 -79.371,45.826 -5.377,-3.104 28.192,-16.275 -27.068,-15.629 -28.435,16.417 -5.376,-3.104 81.245,-46.902 0.854,1.019 0.427,-0.246 31.162,17.959 0.245,-0.141 0.456,0.545 0.663,0.382 z"
         style="fill:#e1e1e1;fill-opacity:1;fill-rule:nonzero;stroke:none"
         id="path24" /></g><g
       id="g26"><g
         id="g28"
         clip-path="url(#clipPath32)"><g
           id="g34"
           transform="translate(388.6786,103.14)"><path
             d="m 0,0 c -17.268,-8.231 -45.263,-8.231 -62.531,0 -17.268,8.229 -17.268,21.573 0,29.803 17.268,8.229 45.263,8.229 62.531,0 C 17.268,21.573 17.268,8.229 0,0"
             style="fill:#e1e1e1;fill-opacity:1;fill-rule:nonzero;stroke:none"
             id="path36" /></g><g
           id="g38"
           transform="translate(255.0976,59.7047)"><path
             d="m 0,0 c -17.268,-8.231 -45.263,-8.231 -62.531,0 -17.268,8.229 -17.268,21.573 0,29.803 17.268,8.229 45.263,8.229 62.531,0 C 17.268,21.573 17.268,8.229 0,0"
             style="fill:#e1e1e1;fill-opacity:1;fill-rule:nonzero;stroke:none"
             id="path40" /></g><g
           id="g42"
           transform="translate(392.6709,91.7177)"><path
             d="m 0,0 c 8.579,-4.953 22.489,-4.953 31.069,0 8.579,4.953 8.579,12.984 0,17.937 C 22.489,22.891 8.579,22.891 0,17.938 -8.579,12.984 -8.579,4.953 0,0"
             style="fill:#e1e1e1;fill-opacity:1;fill-rule:nonzero;stroke:none"
             id="path44" /></g><g
           id="g46"
           transform="translate(74.3033,86.4601)"><path
             d="m 0,0 c 8.579,-4.953 22.489,-4.953 31.069,0 8.579,4.953 8.579,12.984 0,17.937 C 22.489,22.891 8.579,22.891 0,17.938 -8.579,12.984 -8.579,4.953 0,0"
             style="fill:#e1e1e1;fill-opacity:1;fill-rule:nonzero;stroke:none"
             id="path48" /></g></g></g><g
       id="g50"><g
         id="g52"
         clip-path="url(#clipPath56)"><g
           id="g58"
           transform="translate(131.0423,310.5158)"><path
             d="m 0,0 -44.56,-121.27 -0.01,-0.02 c -0.1,-0.31 -0.36,-0.6 -0.78,-0.84 -1.12,-0.65 -2.94,-0.65 -4.06,0 -0.49,0.28 -0.76,0.63 -0.83,1 -0.02,0.11 -0.02,0.22 0,0.33 0.01,0.27 0.06,0.55 0.16,0.83 L -5.4,1.98 c 0.55,1.49 2.2,2.26 3.69,1.71 C -0.22,3.14 0.55,1.49 0,0"
             style="fill:#2b454e;fill-opacity:1;fill-rule:nonzero;stroke:none"
             id="path60" /></g><g
           id="g62"
           transform="translate(71.4776,227.0782)"><path
             d="M 0,0 44.683,-25.797"
             style="fill:none;stroke:#2b454e;stroke-width:6;stroke-linecap:butt;stroke-linejoin:miter;stroke-miterlimit:10;stroke-dasharray:none;stroke-opacity:1"
             id="path64" /></g><g
           id="g66"
           transform="translate(103.974,245.8394)"><path
             d="M 0,0 44.683,-25.797"
             style="fill:none;stroke:#2b454e;stroke-width:6;stroke-linecap:butt;stroke-linejoin:miter;stroke-miterlimit:10;stroke-dasharray:none;stroke-opacity:1"
             id="path68" /></g><g
           id="g70"
           transform="translate(94.6823,318.8458)"><path
             d="m 0,0 23.83,13.76 c 1.95,1.12 4.13,1.29 5.98,0.47 1.85,-0.82 3.18,-2.55 3.65,-4.75 L 73.02,-175.6 c 0.03,-0.13 0.05,-0.25 0.05,-0.38 0.02,-0.13 0.02,-0.27 0.01,-0.4 -0.07,-0.36 -0.34,-0.71 -0.83,-0.99 -1.12,-0.65 -2.94,-0.65 -4.06,0 -0.42,0.25 -0.68,0.55 -0.79,0.86 -0.02,0.06 -0.03,0.12 -0.04,0.17 L 27.84,8.28 c -0.09,0.4 -0.25,0.65 -0.37,0.7 -0.11,0.05 -0.4,0.01 -0.76,-0.2 L 2.87,-4.98"
             style="fill:#375a64;fill-opacity:1;fill-rule:nonzero;stroke:none"
             id="path72" /></g><g
           id="g74"
           transform="translate(133.5739,141.9771)"><path
             d="m 0,0 -14.516,8.381 c -0.478,0.276 -0.866,0.948 -0.866,1.5 v 0.346 c 0,0.552 0.388,1.224 0.866,1.5 L 20.31,31.834 c 0.479,0.276 1.254,0.276 1.732,0 l 14.516,-8.382 c 0.479,-0.276 0.866,-0.947 0.866,-1.5 v -0.345 c 0,-0.552 -0.387,-1.224 -0.866,-1.5 L 1.732,0 C 1.254,-0.276 0.478,-0.276 0,0"
             style="fill:#00dfbf;fill-opacity:1;fill-rule:nonzero;stroke:none"
             id="path76" /></g><g
           id="g78"><g
             id="g80" /><g
             id="g92"><g
               clip-path="url(#clipPath84)"
               opacity="0.100006"
               id="g90"><g
                 transform="translate(118.4456,153.0573)"
                 id="g88"><path
                   d="m 0,0 c -0.157,-0.271 -0.254,-0.577 -0.254,-0.854 v -0.345 c 0,-0.552 0.388,-1.224 0.866,-1.5 l 14.516,-8.381 c 0.239,-0.138 0.553,-0.207 0.866,-0.207 v 2.052 z"
                   style="fill:#000000;fill-opacity:1;fill-rule:nonzero;stroke:none"
                   id="path86" /></g></g></g></g><g
           id="g94"><g
             id="g96" /><g
             id="g108"><g
               clip-path="url(#clipPath100)"
               opacity="0.149994"
               id="g106"><g
                 transform="translate(134.4399,143.8226)"
                 id="g104"><path
                   d="m 0,0 v -2.053 c 0.313,0 0.627,0.069 0.866,0.208 L 18.279,8.208 35.692,18.262 c 0.479,0.276 0.866,0.947 0.866,1.5 v 0.345 c 0,0.276 -0.097,0.582 -0.253,0.854 z"
                   style="fill:#000000;fill-opacity:1;fill-rule:nonzero;stroke:none"
                   id="path102" /></g></g></g></g><g
           id="g110"
           transform="translate(127.2798,171.4085)"><path
             d="m 0,0 -14.516,8.381 c -0.478,0.276 -0.866,0.948 -0.866,1.5 v 0.346 c 0,0.552 0.388,1.224 0.866,1.5 L 20.31,31.834 c 0.479,0.276 1.254,0.276 1.732,0 l 14.516,-8.382 c 0.479,-0.276 0.866,-0.947 0.866,-1.5 v -0.345 c 0,-0.552 -0.387,-1.224 -0.866,-1.5 L 1.732,0 C 1.254,-0.276 0.478,-0.276 0,0"
             style="fill:#00dfbf;fill-opacity:1;fill-rule:nonzero;stroke:none"
             id="path112" /></g><g
           id="g114"><g
             id="g116" /><g
             id="g128"><g
               clip-path="url(#clipPath120)"
               opacity="0.100006"
               id="g126"><g
                 transform="translate(112.1516,182.4887)"
                 id="g124"><path
                   d="m 0,0 c -0.157,-0.271 -0.254,-0.577 -0.254,-0.854 v -0.345 c 0,-0.552 0.388,-1.224 0.866,-1.5 l 14.516,-8.381 c 0.239,-0.138 0.553,-0.207 0.866,-0.207 v 2.052 z"
                   style="fill:#000000;fill-opacity:1;fill-rule:nonzero;stroke:none"
                   id="path122" /></g></g></g></g><g
           id="g130"><g
             id="g132" /><g
             id="g144"><g
               clip-path="url(#clipPath136)"
               opacity="0.149994"
               id="g142"><g
                 transform="translate(128.1458,173.2539)"
                 id="g140"><path
                   d="m 0,0 v -2.053 c 0.313,0 0.627,0.069 0.866,0.208 L 18.279,8.208 35.692,18.262 c 0.479,0.276 0.866,0.947 0.866,1.5 v 0.345 c 0,0.276 -0.097,0.582 -0.253,0.854 z"
                   style="fill:#000000;fill-opacity:1;fill-rule:nonzero;stroke:none"
                   id="path138" /></g></g></g></g><g
           id="g146"
           transform="translate(120.9857,200.8398)"><path
             d="m 0,0 -14.516,8.381 c -0.478,0.276 -0.866,0.948 -0.866,1.5 v 0.346 c 0,0.552 0.388,1.224 0.866,1.5 L 20.31,31.834 c 0.479,0.276 1.254,0.276 1.732,0 l 14.516,-8.382 c 0.479,-0.276 0.866,-0.947 0.866,-1.5 v -0.345 c 0,-0.552 -0.387,-1.224 -0.866,-1.5 L 1.732,0 C 1.254,-0.276 0.478,-0.276 0,0"
             style="fill:#00dfbf;fill-opacity:1;fill-rule:nonzero;stroke:none"
             id="path148" /></g><g
           id="g150"><g
             id="g152" /><g
             id="g164"><g
               clip-path="url(#clipPath156)"
               opacity="0.100006"
               id="g162"><g
                 transform="translate(105.8575,211.9201)"
                 id="g160"><path
                   d="m 0,0 c -0.157,-0.271 -0.254,-0.577 -0.254,-0.854 v -0.345 c 0,-0.552 0.388,-1.224 0.866,-1.5 l 7.258,-4.191 7.258,-4.19 c 0.239,-0.138 0.553,-0.207 0.866,-0.207 v 2.052 z"
                   style="fill:#000000;fill-opacity:1;fill-rule:nonzero;stroke:none"
                   id="path158" /></g></g></g></g><g
           id="g166"><g
             id="g168" /><g
             id="g180"><g
               clip-path="url(#clipPath172)"
               opacity="0.149994"
               id="g178"><g
                 transform="translate(121.8518,202.6853)"
                 id="g176"><path
                   d="m 0,0 v -2.053 c 0.313,0 0.627,0.069 0.866,0.208 L 18.279,8.208 35.692,18.262 c 0.479,0.276 0.866,0.947 0.866,1.5 v 0.345 c 0,0.276 -0.097,0.582 -0.253,0.854 z"
                   style="fill:#000000;fill-opacity:1;fill-rule:nonzero;stroke:none"
                   id="path174" /></g></g></g></g><g
           id="g182"
           transform="translate(114.6917,230.2712)"><path
             d="m 0,0 -14.516,8.381 c -0.478,0.276 -0.866,0.948 -0.866,1.5 v 0.346 c 0,0.552 0.388,1.224 0.866,1.5 L 20.31,31.834 c 0.479,0.276 1.254,0.276 1.732,0 l 14.516,-8.382 c 0.479,-0.276 0.866,-0.947 0.866,-1.5 v -0.345 c 0,-0.552 -0.387,-1.224 -0.866,-1.5 L 1.732,0 C 1.254,-0.276 0.478,-0.276 0,0"
             style="fill:#00dfbf;fill-opacity:1;fill-rule:nonzero;stroke:none"
             id="path184" /></g><g
           id="g186"><g
             id="g188" /><g
             id="g200"><g
               clip-path="url(#clipPath192)"
               opacity="0.149994"
               id="g198"><g
                 transform="translate(115.5577,232.1167)"
                 id="g196"><path
                   d="m 0,0 v -2.053 c 0.313,0 0.627,0.069 0.866,0.208 L 18.279,8.208 35.692,18.262 c 0.479,0.276 0.866,0.947 0.866,1.5 v 0.345 c 0,0.276 -0.097,0.582 -0.253,0.854 z"
                   style="fill:#000000;fill-opacity:1;fill-rule:nonzero;stroke:none"
                   id="path194" /></g></g></g></g><g
           id="g202"><g
             id="g204" /><g
             id="g216"><g
               clip-path="url(#clipPath208)"
               opacity="0.100006"
               id="g214"><g
                 transform="translate(99.5634,241.3514)"
                 id="g212"><path
                   d="m 0,0 c -0.157,-0.271 -0.254,-0.577 -0.254,-0.854 v -0.345 c 0,-0.552 0.388,-1.224 0.866,-1.5 l 14.516,-8.381 c 0.239,-0.138 0.553,-0.207 0.866,-0.207 v 2.052 z"
                   style="fill:#000000;fill-opacity:1;fill-rule:nonzero;stroke:none"
                   id="path210" /></g></g></g></g><g
           id="g218"
           transform="translate(108.3976,259.7026)"><path
             d="m 0,0 -24.123,13.924 c -0.478,0.277 -0.866,0.948 -0.866,1.501 v 0.345 c 0,0.552 0.388,1.224 0.866,1.5 l 34.827,20.107 c 0.478,0.276 1.253,0.276 1.732,0 L 36.558,23.452 c 0.479,-0.276 0.866,-0.947 0.866,-1.5 v -0.345 c 0,-0.552 -0.387,-1.224 -0.866,-1.5 L 1.732,0 C 1.254,-0.276 0.478,-0.276 0,0"
             style="fill:#00dfbf;fill-opacity:1;fill-rule:nonzero;stroke:none"
             id="path220" /></g><g
           id="g222"><g
             id="g224" /><g
             id="g236"><g
               clip-path="url(#clipPath228)"
               opacity="0.149994"
               id="g234"><g
                 transform="translate(109.2636,261.5481)"
                 id="g232"><path
                   d="m 0,0 v -2.053 c 0.313,0 0.627,0.069 0.866,0.208 L 18.279,8.208 35.692,18.262 c 0.479,0.276 0.866,0.947 0.866,1.5 v 0.345 c 0,0.276 -0.097,0.582 -0.253,0.854 z"
                   style="fill:#000000;fill-opacity:1;fill-rule:nonzero;stroke:none"
                   id="path230" /></g></g></g></g><g
           id="g238"><g
             id="g240" /><g
             id="g252"><g
               clip-path="url(#clipPath244)"
               opacity="0.100006"
               id="g250"><g
                 transform="translate(83.6626,276.3261)"
                 id="g248"><path
                   d="m 0,0 c -0.157,-0.271 -0.254,-0.577 -0.254,-0.854 v -0.345 c 0,-0.552 0.388,-1.224 0.866,-1.5 l 24.123,-13.925 c 0.239,-0.138 0.553,-0.207 0.866,-0.207 v 2.053 z"
                   style="fill:#000000;fill-opacity:1;fill-rule:nonzero;stroke:none"
                   id="path246" /></g></g></g></g><g
           id="g254"
           transform="translate(98.5523,291.7558)"><path
             d="m 0,0 -44.52,-121.13 -0.01,-0.04 -0.1,-0.27 c -0.13,-0.25 -0.37,-0.49 -0.72,-0.7 -1.12,-0.64 -2.94,-0.64 -4.07,0 -0.49,0.29 -0.76,0.64 -0.83,1 -0.01,0.11 -0.01,0.22 0,0.33 0.01,0.29 0.07,0.56 0.17,0.84 L -5.4,1.98 c 0.54,1.49 2.19,2.25 3.69,1.71 C -0.22,3.14 0.54,1.49 0,0"
             style="fill:#2b454e;fill-opacity:1;fill-rule:nonzero;stroke:none"
             id="path256" /></g><g
           id="g258"
           transform="translate(97.5523,313.8658)"><path
             d="m 0,0 c -1.32,-0.77 -2.23,-2.81 -1.91,-4.3 l 39.57,-185.07 c 0.04,-0.15 0.06,-0.3 0.06,-0.45 0.01,-0.1 0.01,-0.21 0,-0.32 -0.06,-0.36 -0.34,-0.72 -0.83,-1.01 -1.12,-0.65 -2.94,-0.65 -4.06,0 -0.41,0.24 -0.67,0.53 -0.79,0.83 0,0.01 0,0.02 -0.01,0.03 l -0.05,0.24 -39.51,184.54 c -0.83,3.89 1.21,8.5 4.66,10.49"
             style="fill:#375a64;fill-opacity:1;fill-rule:nonzero;stroke:none"
             id="path260" /></g></g></g><g
       id="g262"><g
         id="g264"
         clip-path="url(#clipPath268)"><g
           id="g270"
           transform="translate(108.5948,126.9433)"><path
             d="m 0,0 -36.705,0.499 -0.319,-29.974 0.003,-10e-4 c -0.03,-2.713 1.732,-5.445 5.294,-7.554 7.121,-4.215 18.742,-4.341 25.956,-0.28 3.639,2.049 5.455,4.772 5.452,7.509 z"
             style="fill:#2b454e;fill-opacity:1;fill-rule:nonzero;stroke:none"
             id="path272" /></g><g
           id="g274"
           transform="translate(77.3527,134.871)"><path
             d="m 0,0 c -7.211,-4.062 -7.283,-10.772 -0.162,-14.988 7.122,-4.215 18.743,-4.341 25.956,-0.28 7.214,4.061 7.287,10.771 0.162,14.988 C 18.832,3.936 7.211,4.062 0,0"
             style="fill:#375a64;fill-opacity:1;fill-rule:nonzero;stroke:none"
             id="path276" /></g><g
           id="g278"
           transform="translate(107.0172,127.0631)"><path
             d="m 0,0 c 0,-0.479 -0.1,-0.958 -0.26,-1.438 -0.559,-1.717 -2.056,-3.315 -4.393,-4.633 -3.255,-1.817 -7.589,-2.796 -12.222,-2.756 -4.613,0.06 -8.926,1.119 -12.141,3.016 -2.257,1.338 -3.735,2.955 -4.254,4.633 -0.18,0.499 -0.259,1.018 -0.259,1.537 0.04,2.237 1.677,4.394 4.653,6.051 3.235,1.837 7.588,2.816 12.201,2.756 4.633,-0.04 8.947,-1.118 12.162,-3.015 C -1.578,4.413 0.02,2.237 0,0"
             style="fill:#1a2e35;fill-opacity:1;fill-rule:nonzero;stroke:none"
             id="path280" /></g><g
           id="g282"
           transform="translate(106.7576,125.6252)"><path
             d="m 0,0 c -0.559,-1.717 -2.057,-3.315 -4.393,-4.633 -3.256,-1.817 -7.589,-2.796 -12.222,-2.756 -4.613,0.06 -8.926,1.119 -12.142,3.016 -2.256,1.338 -3.734,2.955 -4.253,4.633 0.559,1.717 2.057,3.315 4.393,4.613 3.235,1.837 7.589,2.816 12.202,2.775 C -11.782,7.589 -7.469,6.51 -4.254,4.613 -1.997,3.275 -0.539,1.678 0,0"
             style="fill:#00dfbf;fill-opacity:1;fill-rule:nonzero;stroke:none"
             id="path284" /></g><g
           id="g286"
           transform="translate(98.0669,115.7128)"><path
             d="M 0,0 C 0.804,0.453 1.449,0.072 1.438,-0.851 1.428,-1.775 0.768,-2.891 -0.037,-3.345 -0.842,-3.799 -1.486,-3.418 -1.476,-2.494 -1.465,-1.57 -0.804,-0.453 0,0"
             style="fill:#1a2e35;fill-opacity:1;fill-rule:nonzero;stroke:none"
             id="path288" /></g><g
           id="g290"
           transform="translate(71.8304,122.1705)"><path
             d="m 0,0 c -2.017,-3.974 -6.031,-13.44 -0.819,-17.294 0.22,-0.16 0.42,-0.3 0.639,-0.439 L -0.2,-19.65 c -0.519,0.319 -1.058,0.679 -1.577,1.058 -7.789,5.771 0.998,20.589 1.378,21.208 0.099,0.18 0.259,0.28 0.439,0.34 z"
             style="fill:#e1e1e1;fill-opacity:1;fill-rule:nonzero;stroke:none"
             id="path292" /></g><g
           id="g294"
           transform="translate(98.7497,113.6633)"><path
             d="m 0,0 c -0.22,-0.459 -5.891,-11.303 -15.217,-13.48 -1.078,-0.259 -2.137,-0.379 -3.215,-0.379 -2.896,0 -5.791,0.899 -8.687,2.716 l 0.02,1.917 c 3.854,-2.676 7.728,-3.595 11.522,-2.716 8.608,2.017 14.119,12.581 14.159,12.681 0.2,0.399 0.699,0.539 1.078,0.339 C 0.06,0.879 0.22,0.399 0,0"
             style="fill:#e1e1e1;fill-opacity:1;fill-rule:nonzero;stroke:none"
             id="path296" /></g></g></g><g
       id="g298"><g
         id="g300"
         clip-path="url(#clipPath304)"><g
           id="g306"
           transform="translate(174.9252,218.9471)"><path
             d="m 0,0 -3.793,2.19 c -1.196,0.691 -2.165,2.37 -2.165,3.75 l -10e-4,173.237 c 0,1.381 0.969,3.06 2.165,3.75 l 125.655,72.547 c 1.196,0.69 3.134,0.691 4.33,0 l 3.795,-2.19 c 1.196,-0.69 2.165,-2.369 2.165,-3.75 V 76.297 c 0,-1.381 -0.969,-3.06 -2.165,-3.75 L 4.33,0 C 3.134,-0.69 1.196,-0.69 0,0"
             style="fill:#00dfbf;fill-opacity:1;fill-rule:nonzero;stroke:none"
             id="path308" /></g><g
           id="g310"><g
             id="g312" /><g
             id="g324"><g
               clip-path="url(#clipPath316)"
               opacity="0.399994"
               id="g322"><g
                 transform="translate(307.0522,468.8358)"
                 id="g320"><path
                   d="M 0,0 C -0.15,1.12 -1.06,1.53 -2.14,0.9 L -127.8,-71.65 c -0.59,-0.34 -1.13,-0.94 -1.53,-1.62 l -8.12,4.69 c 0.39,0.68 0.93,1.27 1.53,1.62 L -10.27,5.59 c 1.2,0.69 3.14,0.69 4.33,0 L -2.14,3.4 C -1.05,2.77 -0.14,1.3 0,0"
                   style="fill:#ffffff;fill-opacity:1;fill-rule:nonzero;stroke:none"
                   id="path318" /></g></g></g></g><g
           id="g326"><g
             id="g328" /><g
             id="g340"><g
               clip-path="url(#clipPath332)"
               opacity="0.100006"
               id="g338"><g
                 transform="translate(178.7523,218.7258)"
                 id="g336"><path
                   d="M 0,0 C -1.18,-0.46 -2.79,-0.38 -3.83,0.22 L -7.62,2.41 C -8.82,3.1 -9.79,4.78 -9.79,6.16 V 179.4 c 0,0.69 0.25,1.45 0.64,2.13 l 8.12,-4.69 c -0.39,-0.68 -0.63,-1.44 -0.63,-2.13 V 1.47 C -1.66,0.29 -0.95,-0.29 0,0"
                   style="fill:#000000;fill-opacity:1;fill-rule:nonzero;stroke:none"
                   id="path334" /></g></g></g></g><g
           id="g342"
           transform="translate(293.9059,296.7739)"><path
             d="m 0,0 c -6.192,-4.869 -12.121,-3.543 -13.241,2.961 -1.12,6.504 3.948,14.768 10.14,19.636 C 3.091,27.466 8.064,27.096 9.184,20.592 10.304,14.088 6.192,4.869 0,0 m 22.988,35.701 0.001,-0.009 c -0.285,0.171 -0.662,0.157 -1.047,-0.097 l -5.058,-3.329 c -0.692,-0.455 -1.555,-0.22 -2.031,0.458 -0.305,0.436 -0.634,0.839 -0.986,1.208 -0.571,0.6 -0.88,1.632 -0.593,2.409 l 8.039,5.094 -6.001,3.463 -0.005,-0.005 c -0.12,0.068 -0.249,0.127 -0.396,0.16 l -3.813,0.852 C 10.29,46.086 9.322,45.638 8.937,44.904 L 5.352,38.073 C 4.968,37.34 3.989,36.648 3.186,36.444 3.113,36.426 3.039,36.399 2.966,36.38 c 0.22,0.646 0.313,1.589 0.313,1.589 l -6.018,3.473 10e-4,-0.007 c -0.322,0.188 -0.736,0.153 -1.127,-0.155 l -5.714,-4.492 c -0.651,-0.512 -1.137,-1.597 -1.085,-2.424 l 0.34,-5.435 c 0.052,-0.827 -0.357,-1.996 -0.888,-2.631 -0.937,-1.12 -1.823,-2.295 -2.653,-3.512 -0.468,-0.684 -1.498,-1.219 -2.325,-1.178 l -3.673,0.181 c -0.827,0.041 -1.772,-0.539 -2.109,-1.296 l -3.454,-7.741 c -0.309,-0.693 -0.042,-1.482 0.59,-1.86 l -0.002,-0.007 4.072,-2.349 c 0.131,-0.334 0.175,-0.702 0.095,-1.054 -0.283,-1.244 -0.497,-2.479 -0.636,-3.693 -0.094,-0.823 -0.628,-1.948 -1.238,-2.508 l -5.062,-4.655 c -0.61,-0.561 -0.991,-1.677 -0.85,-2.493 l 0.951,-5.522 c 0.062,-0.359 0.231,-0.61 0.456,-0.747 l -0.007,-0.005 6.038,-3.485 0.079,6.912 c 0.692,0.455 1.555,0.221 2.031,-0.458 0.305,-0.436 0.634,-0.838 0.985,-1.207 0.572,-0.6 0.88,-1.633 0.593,-2.41 l -2.579,-6.977 c -0.229,-0.619 -0.003,-1.232 0.505,-1.549 l -0.004,-0.006 6.028,-3.479 1.643,4.492 2.329,5.788 c 0.385,0.733 1.364,1.424 2.167,1.628 0.767,0.196 1.551,0.454 2.347,0.776 0.768,0.311 1.564,-0.03 1.803,-0.824 l 1.29,-4.278 c 0.096,-0.32 0.273,-0.543 0.491,-0.668 l -0.005,-0.003 6.046,-3.487 -1.058,6.686 1.851,1.454 c 0.651,0.512 1.137,1.598 1.085,2.425 l -0.341,5.435 c -0.052,0.827 0.358,1.995 0.889,2.631 0.937,1.119 2.351,1.718 3.181,2.934 0.467,0.684 0.97,1.797 1.797,1.756 l 3.673,-0.181 c 0.827,-0.041 1.772,0.539 2.109,1.296 l 3.454,7.741 c 0.337,0.757 -0.007,1.634 -0.769,1.959 l -2.968,1.265 c -0.762,0.325 -1.202,1.238 -1.018,2.045 0.283,1.245 0.497,2.48 0.636,3.693 0.094,0.823 0.628,1.948 1.237,2.509 l 5.063,4.655 c 0.433,0.398 0.74,1.076 0.837,1.728 l 4.598,3.586 z"
             style="fill:#1a2e35;fill-opacity:1;fill-rule:nonzero;stroke:none"
             id="path344" /></g><g
           id="g346"
           transform="translate(271.3041,298.0024)"><path
             d="m 0,0 -5.006,-4.602 c -0.369,-0.34 -0.636,-0.885 -0.772,-1.443 l 7.435,-4.293 0.005,0.396 c 0.692,0.455 1.555,0.22 2.03,-0.458 0.002,-0.003 0.005,-0.005 0.007,-0.008 l 7.164,4.136 z"
             style="fill:#375a64;fill-opacity:1;fill-rule:nonzero;stroke:none"
             id="path348" /></g><g
           id="g350"
           transform="translate(284.0575,311.9368)"><path
             d="M 0,0 C 0.565,0.874 1.181,1.725 1.842,2.546 L -5.293,6.668 C -5.643,6.524 -6.007,6.428 -6.342,6.445 l -3.673,0.181 c -0.521,0.026 -1.089,-0.196 -1.522,-0.552 l 10.983,-6.341 z"
             style="fill:#375a64;fill-opacity:1;fill-rule:nonzero;stroke:none"
             id="path352" /></g><g
           id="g354"
           transform="translate(322.8935,329.0182)"><path
             d="m 0,0 c -0.28,0.16 -0.65,0.13 -1.03,-0.12 l -5.06,-3.33 c -0.69,-0.45 -1.55,-0.22 -2.03,0.46 -0.31,0.44 -0.63,0.84 -0.99,1.21 -0.57,0.6 -0.88,1.63 -0.59,2.41 l 0.48,1.29 2.17,1.43 c 0.39,0.25 0.77,0.27 1.05,0.1 v 0.01 z"
             style="fill:#375a64;fill-opacity:1;fill-rule:nonzero;stroke:none"
             id="path356" /></g><g
           id="g358"
           transform="translate(307.9414,330.4995)"><path
             d="m 0,0 c -0.059,0.065 -0.108,0.143 -0.168,0.206 -0.572,0.6 -0.881,1.632 -0.593,2.409 L 7.277,7.71 1.276,11.173 1.272,11.167 c -0.12,0.069 -0.249,0.127 -0.397,0.16 l -3.813,0.853 c -0.808,0.181 -1.775,-0.268 -2.16,-1.001 L -8.683,4.348 C -8.856,4.018 -9.158,3.703 -9.501,3.431 l 8.099,-4.676 z"
             style="fill:#375a64;fill-opacity:1;fill-rule:nonzero;stroke:none"
             id="path360" /></g><g
           id="g362"
           transform="translate(283.3871,332.0648)"><path
             d="m 0,0 7.438,-4.294 6.113,5.602 c 0.172,0.621 0.247,1.37 0.247,1.37 L 7.779,6.151 7.781,6.144 C 7.459,6.333 7.044,6.297 6.653,5.989 L 0.94,1.498 C 0.517,1.165 0.181,0.588 0,0"
             style="fill:#375a64;fill-opacity:1;fill-rule:nonzero;stroke:none"
             id="path364" /></g><g
           id="g366"
           transform="translate(299.9204,293.3033)"><path
             d="m 0,0 c -6.192,-4.869 -12.121,-3.543 -13.241,2.961 -1.12,6.504 2.993,15.723 9.185,20.591 6.193,4.869 12.12,3.544 13.24,-2.96 C 10.304,14.088 6.192,4.869 0,0 m 24.4,29.42 -0.95,5.522 c -0.141,0.816 -0.816,1.109 -1.508,0.653 l -5.058,-3.329 c -0.692,-0.455 -1.555,-0.22 -2.031,0.458 -0.305,0.436 -0.634,0.839 -0.986,1.208 -0.571,0.6 -0.88,1.632 -0.593,2.409 l 2.58,6.978 c 0.288,0.777 -0.135,1.553 -0.943,1.734 l -3.813,0.852 C 10.29,46.086 9.322,45.638 8.937,44.904 L 5.352,38.073 C 4.967,37.34 3.989,36.648 3.186,36.444 2.419,36.249 1.635,35.991 0.838,35.669 0.07,35.358 -0.726,35.699 -0.964,36.492 l -1.29,4.279 c -0.239,0.793 -0.96,1.021 -1.612,0.509 l -5.713,-4.492 c -0.651,-0.512 -1.137,-1.597 -1.085,-2.424 l 0.34,-5.435 c 0.052,-0.827 -0.357,-1.995 -0.888,-2.631 -0.937,-1.12 -1.823,-2.295 -2.653,-3.512 -0.468,-0.684 -1.498,-1.219 -2.325,-1.178 l -3.673,0.181 c -0.827,0.041 -1.772,-0.539 -2.109,-1.296 l -3.454,-7.741 c -0.337,-0.757 0.007,-1.634 0.769,-1.959 l 2.967,-1.265 c 0.762,-0.325 1.202,-1.238 1.019,-2.045 -0.283,-1.245 -0.497,-2.48 -0.636,-3.694 -0.095,-0.823 -0.628,-1.948 -1.238,-2.508 l -5.062,-4.655 c -0.61,-0.561 -0.991,-1.677 -0.85,-2.493 l 0.951,-5.522 c 0.14,-0.816 0.815,-1.109 1.507,-0.653 l 5.059,3.328 c 0.692,0.455 1.555,0.221 2.031,-0.458 0.305,-0.436 0.634,-0.838 0.985,-1.207 0.571,-0.6 0.88,-1.633 0.593,-2.41 l -2.579,-6.977 c -0.288,-0.777 0.135,-1.553 0.943,-1.734 l 3.812,-0.852 c 0.809,-0.181 1.776,0.267 2.161,1 l 3.585,6.832 c 0.385,0.733 1.364,1.424 2.167,1.628 0.767,0.196 1.551,0.454 2.347,0.776 0.768,0.311 1.564,-0.03 1.803,-0.823 l 1.29,-4.279 c 0.239,-0.793 0.96,-1.021 1.612,-0.509 l 5.712,4.491 c 0.652,0.512 1.138,1.598 1.086,2.425 l -0.341,5.435 c -0.052,0.827 0.358,1.995 0.889,2.631 0.937,1.12 1.823,2.295 2.653,3.511 0.468,0.685 1.498,1.22 2.325,1.179 l 3.673,-0.181 c 0.827,-0.041 1.772,0.539 2.109,1.296 l 3.454,7.741 c 0.337,0.757 -0.007,1.634 -0.769,1.959 l -2.968,1.265 c -0.762,0.325 -1.202,1.238 -1.018,2.045 0.283,1.245 0.497,2.48 0.636,3.693 0.094,0.823 0.628,1.948 1.237,2.509 l 5.063,4.655 c 0.61,0.561 0.99,1.677 0.849,2.493"
             style="fill:#2b454e;fill-opacity:1;fill-rule:nonzero;stroke:none"
             id="path368" /></g><g
           id="g370"
           transform="translate(235.8071,330.912)"><path
             d="m 0,0 c -11.215,-6.476 -18.187,-1.882 -18.187,11.069 0,12.951 9.269,28.816 20.485,35.29 11.215,6.476 18.009,1.765 18.009,-11.185 C 20.307,22.223 11.215,6.475 0,0 m 52.491,55.015 -5.923,3.416 c 0,0 0,-0.005 0,-0.006 -0.245,0.14 -0.57,0.149 -0.93,-0.013 L 34.939,53.589 c -0.756,-0.341 -1.533,0.035 -1.782,0.825 -0.622,1.966 -1.424,3.737 -2.386,5.305 -0.432,0.706 -0.53,1.85 -0.162,2.592 l 7.131,14.38 c 0.368,0.742 0.085,1.679 -0.632,2.094 l -7.74,4.468 c -0.717,0.414 -1.671,0.191 -2.129,-0.499 L 18.352,69.388 c -0.459,-0.69 -1.5,-1.177 -2.328,-1.155 -1.006,0.026 -2.043,-0.026 -3.104,-0.146 v 9.774 L 6.982,81.285 V 81.284 C 6.718,81.424 6.374,81.406 6.01,81.197 L -6.01,74.256 C -6.728,73.842 -7.37,72.837 -7.444,72.012 L -8.648,58.637 c -0.074,-0.825 -0.641,-1.937 -1.25,-2.498 -2.339,-2.154 -4.573,-4.528 -6.678,-7.068 -0.528,-0.638 -1.579,-0.942 -2.361,-0.669 l -7.716,2.695 c -0.782,0.273 -1.752,-0.087 -2.166,-0.805 l -8.837,-15.306 c -0.415,-0.717 -0.242,-1.737 0.386,-2.278 l 6.192,-5.335 c 0.627,-0.541 0.889,-1.605 0.601,-2.381 -1.148,-3.093 -2.087,-6.215 -2.783,-9.318 -0.181,-0.808 -0.86,-1.853 -1.538,-2.33 L -45.779,5.614 C -46.456,5.137 -47.006,4.079 -47.006,3.25 v -13.88 c 0,-0.428 0.166,-0.737 0.427,-0.892 0,0 -0.002,-0.003 -0.002,-0.003 l 5.92,-3.414 8.794,4.163 c 0.34,-0.713 0.701,-1.4 1.096,-2.045 0.433,-0.706 0.531,-1.85 0.162,-2.592 l -7.131,-14.379 c -0.368,-0.743 -0.085,-1.68 0.633,-2.094 l 7.739,-4.469 c 0.717,-0.414 1.671,-0.19 2.129,0.499 l 8.887,13.366 c 0.459,0.69 1.5,1.178 2.328,1.156 1.839,-0.048 3.773,0.142 5.787,0.587 0.809,0.178 1.522,-0.307 1.605,-1.131 l 1.173,-11.678 c 0.04,-0.399 0.214,-0.679 0.462,-0.819 L -7,-34.377 l 5.911,-3.409 7.099,10.428 c 0.718,0.414 1.36,1.419 1.434,2.244 l 1.204,13.376 c 0.074,0.825 0.774,1.702 1.538,2.023 3.434,1.438 6.905,3.923 9.337,6.55 0.563,0.608 1.613,0.913 2.394,0.638 l 4.737,-1.668 c 0.782,-0.275 1.751,0.084 2.165,0.801 l 8.838,15.306 c 0.414,0.718 0.241,1.738 -0.387,2.279 l -4.07,3.507 c -0.627,0.541 -0.888,1.604 -0.661,2.401 0.976,3.425 1.198,7.905 1.104,11.092 -0.024,0.828 0.477,1.886 1.155,2.363 l 10.981,7.73 c 0.678,0.477 1.227,1.535 1.227,2.363 l 5.248,6.291 z"
             style="fill:#1a2e35;fill-opacity:1;fill-rule:nonzero;stroke:none"
             id="path372" /></g><g
           id="g374"
           transform="translate(271.1886,402.8471)"><path
             d="M 0,0 2.359,4.756 C 2.727,5.498 2.443,6.435 1.726,6.849 l -7.739,4.469 c -0.718,0.414 -1.671,0.191 -2.13,-0.499 L -17.03,-2.547 c -0.144,-0.217 -0.356,-0.403 -0.591,-0.57 l 9.948,-5.743 z"
             style="fill:#375a64;fill-opacity:1;fill-rule:nonzero;stroke:none"
             id="path376" /></g><g
           id="g378"
           transform="translate(201.8579,345.1585)"><path
             d="m 0,0 c -0.257,-0.363 -0.549,-0.692 -0.849,-0.903 l -10.981,-7.73 c -0.276,-0.194 -0.518,-0.497 -0.723,-0.83 l 6.7,-3.869 14.579,8.294 z"
             style="fill:#375a64;fill-opacity:1;fill-rule:nonzero;stroke:none"
             id="path380" /></g><g
           id="g382"
           transform="translate(208.5336,382.098)"><path
             d="M 0,0 C -0.619,-0.023 -1.237,-0.359 -1.546,-0.894 L -10.383,-16.2 c -0.193,-0.333 -0.246,-0.732 -0.198,-1.118 l 7.617,-4.398 12.096,16.365 z"
             style="fill:#375a64;fill-opacity:1;fill-rule:nonzero;stroke:none"
             id="path384" /></g><g
           id="g386"
           transform="translate(228.5963,403.7202)"><path
             d="M 0,0 9.425,-5.442 20.131,0.74 V 5.053 L 14.193,8.477 V 8.475 C 13.929,8.615 13.584,8.598 13.221,8.388 L 1.201,1.448 C 0.706,1.163 0.262,0.594 0,0"
             style="fill:#375a64;fill-opacity:1;fill-rule:nonzero;stroke:none"
             id="path388" /></g><g
           id="g390"
           transform="translate(241.7186,327.5034)"><path
             d="m 0,0 c -11.216,-6.475 -20.309,-1.226 -20.309,11.724 0,12.951 9.093,28.699 20.309,35.175 11.215,6.474 20.307,1.225 20.307,-11.725 C 20.307,22.223 11.215,6.476 0,0 m 47.005,43.647 v 13.881 c 0,0.829 -0.612,1.224 -1.367,0.884 L 34.939,53.589 c -0.756,-0.341 -1.533,0.035 -1.783,0.825 -0.622,1.966 -1.424,3.737 -2.385,5.305 -0.433,0.706 -0.531,1.85 -0.163,2.592 l 7.132,14.38 c 0.368,0.742 0.085,1.68 -0.632,2.094 l -7.74,4.468 c -0.717,0.414 -1.671,0.191 -2.13,-0.499 L 18.351,69.388 c -0.459,-0.69 -1.499,-1.177 -2.327,-1.155 -1.839,0.048 -3.773,-0.143 -5.787,-0.587 -0.809,-0.179 -1.522,0.306 -1.605,1.13 L 7.459,80.454 C 7.376,81.278 6.728,81.61 6.01,81.196 L -6.01,74.256 C -6.728,73.842 -7.37,72.837 -7.444,72.012 L -8.648,58.637 c -0.074,-0.825 -0.641,-1.937 -1.25,-2.498 -2.339,-2.154 -4.574,-4.527 -6.678,-7.068 -0.528,-0.638 -1.579,-0.942 -2.361,-0.669 l -7.717,2.695 c -0.782,0.273 -1.752,-0.087 -2.166,-0.805 l -8.837,-15.307 c -0.415,-0.717 -0.242,-1.737 0.386,-2.278 l 6.192,-5.335 c 0.627,-0.541 0.889,-1.604 0.601,-2.381 -1.148,-3.092 -2.086,-6.214 -2.782,-9.317 -0.181,-0.808 -0.86,-1.853 -1.538,-2.33 L -45.779,5.614 C -46.457,5.137 -47.006,4.079 -47.006,3.25 v -13.88 c 0,-0.828 0.613,-1.224 1.368,-0.883 l 10.699,4.823 c 0.755,0.34 1.532,-0.036 1.782,-0.826 0.622,-1.966 1.424,-3.736 2.385,-5.305 0.433,-0.706 0.531,-1.851 0.162,-2.593 l -7.131,-14.379 c -0.368,-0.742 -0.085,-1.68 0.633,-2.094 l 7.739,-4.468 c 0.717,-0.414 1.671,-0.19 2.129,0.5 l 8.888,13.365 c 0.459,0.689 1.5,1.177 2.328,1.155 1.839,-0.047 3.773,0.143 5.787,0.588 0.809,0.178 1.522,-0.307 1.605,-1.131 l 1.173,-11.678 c 0.082,-0.824 0.731,-1.157 1.448,-0.742 l 12.021,6.94 c 0.718,0.414 1.36,1.419 1.434,2.244 l 1.204,13.376 c 0.074,0.825 0.641,1.936 1.25,2.497 2.339,2.154 4.573,4.527 6.676,7.067 0.528,0.638 1.58,0.943 2.362,0.67 l 7.717,-2.694 c 0.782,-0.273 1.752,0.087 2.166,0.804 l 8.838,15.306 c 0.414,0.718 0.241,1.738 -0.387,2.279 l -6.192,5.335 c -0.627,0.54 -0.889,1.604 -0.601,2.381 1.148,3.092 2.087,6.214 2.783,9.317 0.181,0.808 0.86,1.853 1.538,2.33 l 10.981,7.73 c 0.677,0.477 1.226,1.535 1.226,2.363"
             style="fill:#2b454e;fill-opacity:1;fill-rule:nonzero;stroke:none"
             id="path392" /></g><g
           id="g394"
           transform="translate(288.3022,385.9258)"><path
             d="m 0,0 v -0.01 c -0.24,0.16 -0.58,0.17 -0.95,0 l -10.7,-4.82 c -0.75,-0.34 -1.53,0.03 -1.78,0.82 -0.42,1.35 -0.93,2.6 -1.53,3.76 l 8.1,3.65 c 0.36,0.16 0.69,0.15 0.93,0.01 v 0.01 z"
             style="fill:#375a64;fill-opacity:1;fill-rule:nonzero;stroke:none"
             id="path396" /></g></g></g><g
       id="g398"><g
         id="g400"
         clip-path="url(#clipPath404)"><g
           id="g406"
           transform="translate(372.5372,125.3303)"><path
             d="m 0,0 v 1.138 c -0.449,-1.335 -2.53,-7.081 -5.688,-9.961 -2.51,-2.289 -5.934,-4.933 -6.804,-7.486 -0.906,-2.654 4.764,-3.546 7.109,-3.131 2.725,0.483 6.25,2.029 8.169,4.386 1.349,1.658 2.208,3.622 3.171,4.926 0.964,1.303 3.184,2.758 3.705,4.267 0.286,0.828 -0.054,2.643 -0.456,4.177 C 8.838,-0.277 8.438,1.27 7.957,1.138 7.956,0.966 7.957,0.27 7.957,0.27 7.38,-0.37 5.781,-1.005 3.979,-1.074 2.815,-1.119 -0.01,-0.888 0,0"
             style="fill:#1a2e35;fill-opacity:1;fill-rule:nonzero;stroke:none"
             id="path408" /></g><g
           id="g410"
           transform="translate(364.5775,114.4935)"><path
             d="m 0,0 c 0.778,0.695 1.562,1.374 2.272,2.022 2.206,2.012 3.887,5.424 4.853,7.752 0.551,1.33 0.835,2.749 0.835,4.188 v 4.535 h 7.957 v -7.382 0 -10e-4 -0.197 l -0.04,-0.02 C 15.494,9.243 11.843,4.845 9.768,1.977 8.377,0.054 5.734,-2.392 2.577,-2.813 -0.415,-3.213 -1.945,-2.269 0,0"
             style="fill:#ffaaa8;fill-opacity:1;fill-rule:nonzero;stroke:none"
             id="path412" /></g><g
           id="g414"
           transform="translate(341.4991,133.1744)"><path
             d="m 0,0 v 1.138 c -0.449,-1.335 -2.53,-7.081 -5.688,-9.961 -2.51,-2.289 -5.934,-4.933 -6.804,-7.486 -0.906,-2.654 4.764,-3.546 7.109,-3.131 2.725,0.483 6.25,2.029 8.169,4.386 1.349,1.658 2.208,3.622 3.171,4.926 0.964,1.303 3.184,2.758 3.705,4.267 0.286,0.828 -0.054,2.643 -0.456,4.177 C 8.838,-0.277 8.438,1.27 7.957,1.138 7.956,0.966 7.957,0.27 7.957,0.27 7.38,-0.37 5.781,-1.005 3.979,-1.074 2.815,-1.119 -0.01,-0.888 0,0"
             style="fill:#1a2e35;fill-opacity:1;fill-rule:nonzero;stroke:none"
             id="path416" /></g><g
           id="g418"
           transform="translate(333.5395,122.3377)"><path
             d="m 0,0 c 0.778,0.695 1.562,1.374 2.272,2.022 2.206,2.012 3.887,5.424 4.853,7.752 0.551,1.33 0.835,2.749 0.835,4.188 v 4.535 h 7.957 v -7.382 0 -10e-4 -0.197 l -0.04,-0.02 C 15.494,9.243 11.843,4.845 9.768,1.977 8.377,0.054 5.734,-2.392 2.577,-2.813 -0.415,-3.213 -1.945,-2.269 0,0"
             style="fill:#ffaaa8;fill-opacity:1;fill-rule:nonzero;stroke:none"
             id="path420" /></g><g
           id="g422"
           transform="translate(378.9113,248.9955)"><path
             d="m 0,0 c 6.169,-13.474 -0.223,-60.937 -0.223,-60.937 0.186,-2.186 2.686,-6.488 3.617,-16.112 1.101,-11.37 -1.726,-39.92 -1.726,-39.92 0,0 -3.685,-2.409 -8.042,-0.32 0,0 -7.584,42.999 -9.01,54.304 -1.244,9.867 -3.633,31.561 -3.633,31.561 l -6.789,-31.507 c 0,0 1.743,-5.527 2.15,-9.738 0.645,-6.65 -5.798,-37.611 -5.798,-37.611 0,0 -2.746,-1.007 -7.958,-0.24 0,0 -2.279,41.087 -2.88,49.098 -1.008,13.453 2.565,55.43 5.032,63.394 z"
             style="fill:#2b454e;fill-opacity:1;fill-rule:nonzero;stroke:none"
             id="path424" /></g><g
           id="g426"
           transform="translate(359.8942,217.5712)"><path
             d="m 0,0 -2.003,12.514 c 0,0 -8.473,1.756 -12.316,5.368 0,0 4.032,-5.015 10.02,-6.657 l 2.25,-9.635 -3.933,-29.174 z"
             style="fill:#1a2e35;fill-opacity:1;fill-rule:nonzero;stroke:none"
             id="path428" /></g><g
           id="g430"
           transform="translate(346.8475,257.4899)"><path
             d="m 0,0 c 4.669,15.541 10.626,38.682 8.378,38.682 -2.249,0 -5.699,0.206 -8.227,-2.333 -4.981,-5.004 -5.89,-14.28 -6.936,-19.574 -1.046,-5.294 -1.794,-9.474 -3.461,-17.329 -1.266,-5.966 -2.807,-13.163 -5.065,-17.767 -0.4,-0.815 -1.106,-1.438 -1.947,-1.781 -2.256,-0.921 -3.303,-2.086 -5.114,-3.426 -1.418,-1.049 -2.495,-1.185 -2.406,-1.612 0.114,-0.549 0.827,-1.529 2.375,-1.335 0.78,0.098 1.836,0.511 3.16,1.067 0,0 -1.285,-2.354 -3.838,-4.572 -3.461,-3.005 -3.958,-5.132 1.796,-6.181 3.606,-0.658 6.873,1.071 10.969,8.558 1.18,2.157 3.032,5.564 4.086,8.497 C -3.486,-11.471 -1.412,-4.699 0,0"
             style="fill:#ffaaa8;fill-opacity:1;fill-rule:nonzero;stroke:none"
             id="path432" /></g><g
           id="g434"
           transform="translate(368.0297,295.8047)"><path
             d="m 0,0 v 0 c 7.909,-0.544 8.464,-4.364 10.443,-8.541 1.506,-3.18 1.523,-6.868 0.374,-10.194 L 5.305,-34.678 c 0,0 2.581,-6.238 5.577,-12.131 -13.831,-7.72 -31.102,-3.662 -35.26,1.971 -0.176,1.195 0.893,10.536 1.551,16.638 -2.436,6.111 -3.079,9.984 -2.051,14.024 1.907,7.497 9.314,14.802 12.591,14.536 z"
             style="fill:#00dfbf;fill-opacity:1;fill-rule:nonzero;stroke:none"
             id="path436" /></g><g
           id="g438"
           transform="translate(360.4265,302.3592)"><path
             d="m 0,0 h 3.069 c 8.928,0 16.165,7.237 16.165,16.165 v 0 c 0,8.977 -7.276,16.253 -16.252,16.253 H 0.087 c -8.976,0 -16.252,-7.277 -16.252,-16.253 v 0 C -16.165,7.237 -8.928,0 0,0"
             style="fill:#1a2e35;fill-opacity:1;fill-rule:nonzero;stroke:none"
             id="path440" /></g><g
           id="g442"
           transform="translate(388.3174,293.8391)"><path
             d="m 0,0 v 0 c -5.275,0 -9.551,4.276 -9.551,9.551 v 20.451 0 C -4.276,30.002 0,25.726 0,20.451 Z"
             style="fill:#1a2e35;fill-opacity:1;fill-rule:nonzero;stroke:none"
             id="path444" /></g><g
           id="g446"
           transform="translate(380.5168,327.4691)"><path
             d="M 0,0 -2.394,-3.848 C -1.333,-4.557 0.063,-4.271 0.724,-3.209 1.386,-2.146 1.061,-0.71 0,0"
             style="fill:#1a2e35;fill-opacity:1;fill-rule:nonzero;stroke:none"
             id="path448" /></g><g
           id="g450"
           transform="translate(350.0757,327.619)"><path
             d="m 0,0 c -1.87,-1.105 -4.18,-5.807 -3.952,-15.665 0.193,-8.355 2.901,-10.418 4.261,-11.013 1.359,-0.595 3.982,-0.233 6.532,0.192 V -31.5 c 0,0 -3.524,-4.093 -3.302,-6.392 0.222,-2.299 5.087,-2.843 8.385,-0.596 3.297,2.245 5.411,5.664 5.411,5.664 v 12.12 c 0,0 1.721,-2.298 4.537,-0.428 2.815,1.869 2.922,6.496 1.285,8.158 -1.637,1.661 -5.164,1.135 -5.822,-1.16 0,0 -4.066,-0.149 -9.48,2.826 C 2.44,-8.334 0.36,-3.239 0,0"
             style="fill:#ffaaa8;fill-opacity:1;fill-rule:nonzero;stroke:none"
             id="path452" /></g><g
           id="g454"
           transform="translate(356.3869,314.0531)"><path
             d="M 0,0 C -0.03,-0.602 0.415,-1.112 0.994,-1.14 1.574,-1.167 2.068,-0.702 2.099,-0.1 2.129,0.502 1.684,1.013 1.104,1.04 0.525,1.068 0.03,0.602 0,0"
             style="fill:#1a2e35;fill-opacity:1;fill-rule:nonzero;stroke:none"
             id="path456" /></g><g
           id="g458"
           transform="translate(355.1709,306.9709)"><path
             d="m 0,0 -2.44,-0.778 c 0.202,-0.699 0.913,-1.091 1.587,-0.876 C -0.179,-1.439 0.203,-0.698 0,0"
             style="fill:#ff9090;fill-opacity:1;fill-rule:nonzero;stroke:none"
             id="path460" /></g><g
           id="g462"
           transform="translate(347.7728,317.279)"><path
             d="M 0,0 2.126,1.473 C 1.738,2.08 0.947,2.243 0.36,1.836 -0.227,1.429 -0.388,0.607 0,0"
             style="fill:#1a2e35;fill-opacity:1;fill-rule:nonzero;stroke:none"
             id="path464" /></g><g
           id="g466"
           transform="translate(348.2628,314.8125)"><path
             d="M 0,0 C -0.03,-0.602 0.415,-1.112 0.995,-1.14 1.574,-1.167 2.068,-0.701 2.099,-0.099 2.129,0.503 1.684,1.013 1.104,1.04 0.525,1.068 0.03,0.602 0,0"
             style="fill:#1a2e35;fill-opacity:1;fill-rule:nonzero;stroke:none"
             id="path468" /></g><g
           id="g470"
           transform="translate(353.3941,315.4141)"><path
             d="m 0,0 -0.167,-6.324 -3.329,1.031 z"
             style="fill:#ff9090;fill-opacity:1;fill-rule:nonzero;stroke:none"
             id="path472" /></g><g
           id="g474"
           transform="translate(356.9162,301.1327)"><path
             d="m 0,0 c 2.687,0.352 8.214,1.94 9.076,4.126 0,0 -0.287,-1.374 -1.938,-2.789 C 5.487,-0.078 0,-1.673 0,-1.673 Z"
             style="fill:#ff9090;fill-opacity:1;fill-rule:nonzero;stroke:none"
             id="path476" /></g><g
           id="g478"><g
             id="g480" /><g
             id="g492"><g
               clip-path="url(#clipPath484)"
               opacity="0.100006"
               id="g490"><g
                 transform="translate(364.4924,247.4997)"
                 id="g488"><path
                   d="m 0,0 c 4.543,1.076 7.425,5.671 6.225,10.183 -0.045,0.171 -0.093,0.318 -0.141,0.435 -0.889,2.138 -2.801,1.857 -2.801,1.857 1.793,1.189 3.037,3.043 3.457,5.153 l 1.679,8.43 c 0,0 -3.118,9.905 -2.802,13.298 l 7.937,-0.459 c 0,0 0.399,-0.277 1.027,-0.714 0.867,-2.785 0.737,-5.824 -0.227,-8.613 L 8.842,13.627 c 0,0 2.581,-6.238 5.577,-12.131 C 4.226,-4.193 -7.829,-3.483 -15.133,-0.462 -9.364,-1.357 -4.018,-0.951 0,0"
                   style="fill:#000000;fill-opacity:1;fill-rule:nonzero;stroke:none"
                   id="path486" /></g></g></g></g><g
           id="g494"
           transform="translate(375.9237,255.22)"><path
             d="m 0,0 c -2.927,-0.775 -11.815,-1.832 -12.469,4.407 -0.428,4.082 -0.226,10.264 0.036,14.934 0.415,7.373 3.045,14.458 7.613,20.261 0.224,0.284 0.352,0.438 0.352,0.438 0,0 -1.284,1.048 -4.045,0.563 0,0 -6.003,-5.688 -7.825,-13.968 -3.974,0.58 -8.995,1.011 -12.334,1.26 2.798,9.18 9.664,13.004 9.664,13.004 -1.476,0.777 -3.522,0.057 -3.522,0.057 -5.519,-3.152 -8.424,-8.478 -9.759,-12.813 -3.185,-8.818 -3.07,-41.641 -3.014,-53.299 l 5.487,8.739 35.031,0.001 C 4.764,-3.884 0,0 0,0"
             style="fill:#2b454e;fill-opacity:1;fill-rule:nonzero;stroke:none"
             id="path496" /></g><g
           id="g498"
           transform="translate(393.035,263.746)"><path
             d="m 0,0 c 0,0 -3.735,7.975 -8.922,19.796 -3.749,8.542 -4.588,10.468 -10.549,11.391 l -2.108,0.327 c -2.826,-9.285 -0.879,-13.492 2.845,-19.85 L -11.38,-2.593 C -8.453,-2.012 0.063,-0.884 0,0"
             style="fill:#ffaaa8;fill-opacity:1;fill-rule:nonzero;stroke:none"
             id="path500" /></g><g
           id="g502"
           transform="translate(381.6552,261.1534)"><path
             d="M 0,0 C 2.187,-4.393 4.058,-7.11 6.706,-7.821 9.354,-8.531 31.25,-8.279 31.25,-8.279 V 0 L 10.418,3.164 Z"
             style="fill:#ffaaa8;fill-opacity:1;fill-rule:nonzero;stroke:none"
             id="path504" /></g><g
           id="g506"
           transform="translate(425.4299,170.2445)"><path
             d="m 0,0 h -34.438 v -67.09 c -0.163,-2.663 1.498,-5.355 5.018,-7.388 6.73,-3.885 17.642,-3.885 24.372,0 3.369,1.945 5.051,4.495 5.047,7.044 l 0.001,0 z"
             style="fill:#00dfbf;fill-opacity:1;fill-rule:nonzero;stroke:none"
             id="path508" /></g><g
           id="g510"
           transform="translate(421.8063,176.3357)"><path
             d="m 0,0 h 0.016 c -3.81,2.491 -1.44,8.55 -1.44,8.55 h -24.372 c 0,0 2.305,-6.021 -1.44,-8.55 h 0.016 c -5.252,-3.903 -4.787,-9.541 1.424,-13.126 6.73,-3.886 17.642,-3.886 24.372,0 C 4.787,-9.541 5.252,-3.903 0,0"
             style="fill:#00dfbf;fill-opacity:1;fill-rule:nonzero;stroke:none"
             id="path512" /></g><g
           id="g514"><g
             id="g516" /><g
             id="g528"><g
               clip-path="url(#clipPath520)"
               opacity="0.0500031"
               id="g526"><g
                 transform="translate(421.8063,176.3357)"
                 id="g524"><path
                   d="m 0,0 h 0.016 c -3.81,2.491 -1.44,8.55 -1.44,8.55 h -24.372 c 0,0 2.305,-6.021 -1.44,-8.55 h 0.016 c -5.252,-3.903 -4.787,-9.541 1.424,-13.126 6.73,-3.886 17.642,-3.886 24.372,0 C 4.787,-9.541 5.252,-3.903 0,0"
                   style="fill:#000000;fill-opacity:1;fill-rule:nonzero;stroke:none"
                   id="path522" /></g></g></g></g><g
           id="g530"><g
             id="g532" /><g
             id="g544"><g
               clip-path="url(#clipPath536)"
               opacity="0.0500031"
               id="g542"><g
                 transform="translate(419.708,181.9049)"
                 id="g540"><path
                   d="m 0,0 c 0.164,1.659 0.674,2.98 0.674,2.98 h -24.372 c 0,0 0.497,-1.314 0.652,-2.968 C -16.506,-3.401 -6.548,-3.405 0,0"
                   style="fill:#000000;fill-opacity:1;fill-rule:nonzero;stroke:none"
                   id="path538" /></g></g></g></g><g
           id="g546"
           transform="translate(425.4299,196.6115)"><path
             d="m 0,0 h -2.037 c -0.78,0.842 -1.78,1.635 -3.011,2.345 -6.73,3.886 -17.642,3.886 -24.372,0 C -30.65,1.635 -31.651,0.842 -32.431,0 h -2.037 v -4.69 c 0,-2.547 1.683,-5.093 5.048,-7.036 6.73,-3.886 17.642,-3.886 24.372,0 C -1.682,-9.783 0,-7.237 0,-4.69 Z"
             style="fill:#00dfbf;fill-opacity:1;fill-rule:nonzero;stroke:none"
             id="path548" /></g><g
           id="g550"
           transform="translate(396.01,189.5759)"><path
             d="m 0,0 c 6.73,-3.886 17.642,-3.886 24.372,0 6.73,3.886 6.73,10.186 0,14.071 C 17.642,17.957 6.73,17.957 0,14.071 -6.73,10.186 -6.73,3.886 0,0"
             style="fill:#00dfbf;fill-opacity:1;fill-rule:nonzero;stroke:none"
             id="path552" /></g><g
           id="g554"><g
             id="g556" /><g
             id="g568"><g
               clip-path="url(#clipPath560)"
               opacity="0.399994"
               id="g566"><g
                 transform="translate(396.01,189.5759)"
                 id="g564"><path
                   d="m 0,0 c 6.73,-3.886 17.642,-3.886 24.372,0 6.73,3.886 6.73,10.186 0,14.071 C 17.642,17.957 6.73,17.957 0,14.071 -6.73,10.186 -6.73,3.886 0,0"
                   style="fill:#ffffff;fill-opacity:1;fill-rule:nonzero;stroke:none"
                   id="path562" /></g></g></g></g><g
           id="g570"><g
             id="g572" /><g
             id="g584"><g
               clip-path="url(#clipPath576)"
               opacity="0.199997"
               id="g582"><g
                 transform="translate(408.2052,100.1737)"
                 id="g580"><path
                   d="m 0,0 v 0 c -1.855,0 -3.359,1.504 -3.359,3.359 v 47.924 c 0,1.855 1.504,3.359 3.359,3.359 1.855,0 3.359,-1.504 3.359,-3.359 V 3.359 C 3.359,1.504 1.855,0 0,0"
                   style="fill:#000000;fill-opacity:1;fill-rule:nonzero;stroke:none"
                   id="path578" /></g></g></g></g><g
           id="g586"><g
             id="g588" /><g
             id="g600"><g
               clip-path="url(#clipPath592)"
               opacity="0.199997"
               id="g598"><g
                 transform="translate(419.6792,102.1963)"
                 id="g596"><path
                   d="m 0,0 v 0 c -1.607,-0.585 -2.909,0.244 -2.909,1.85 v 48.825 c 0,1.606 1.302,3.383 2.909,3.967 v 0 c 1.607,0.585 2.909,-0.243 2.909,-1.85 V 3.968 C 2.909,2.361 1.607,0.585 0,0"
                   style="fill:#000000;fill-opacity:1;fill-rule:nonzero;stroke:none"
                   id="path594" /></g></g></g></g><g
           id="g602"><g
             id="g604" /><g
             id="g616"><g
               clip-path="url(#clipPath608)"
               opacity="0.199997"
               id="g614"><g
                 transform="translate(396.7312,102.1963)"
                 id="g612"><path
                   d="m 0,0 v 0 c 1.607,-0.585 2.909,0.244 2.909,1.85 v 48.825 c 0,1.606 -1.302,3.383 -2.909,3.967 -1.607,0.585 -2.909,-0.243 -2.909,-1.85 V 3.968 C -2.909,2.361 -1.607,0.585 0,0"
                   style="fill:#000000;fill-opacity:1;fill-rule:nonzero;stroke:none"
                   id="path610" /></g></g></g></g><g
           id="g618"
           transform="translate(412.9055,317.2869)"><path
             d="m 0,0 -7.037,4.063 -4.435,-20.892 c 0,0 4.436,-7.251 4.436,-11.942 v -89.118 l 4.654,-5.434 2.382,1.372 v 89.118 c 0,4.691 4.435,6.82 4.435,6.82 z"
             style="fill:#e1e1e1;fill-opacity:1;fill-rule:nonzero;stroke:none"
             id="path620" /></g><g
           id="g622"
           transform="translate(410.5236,315.9149)"><path
             d="m 0,0 -7.037,4.063 -4.435,-20.892 c 0,0 4.436,-7.251 4.436,-11.942 v -89.118 L 0,-121.951 v 89.118 c 0,4.691 4.435,6.82 4.435,6.82 z"
             style="fill:#ececec;fill-opacity:1;fill-rule:nonzero;stroke:none"
             id="path624" /></g><g
           id="g626"
           transform="translate(403.4867,319.9777)"><path
             d="M 0,0 2.382,1.372 9.419,-2.691 7.037,-4.063 Z"
             style="fill:#fafafa;fill-opacity:1;fill-rule:nonzero;stroke:none"
             id="path628" /></g><g
           id="g630"
           transform="translate(412.9055,317.2869)"><path
             d="m 0,0 -2.382,-1.372 4.435,-26.013 2.382,1.372 z"
             style="fill:#f5f5f5;fill-opacity:1;fill-rule:nonzero;stroke:none"
             id="path632" /></g><g
           id="g634"
           transform="translate(412.9051,267.718)"><path
             d="m 0,0 c 0.361,1.573 2.846,2.456 2.6,-0.169 -0.246,-2.625 1.011,-4.451 1.366,-5.673 0.746,-2.566 0.577,-7.421 -0.433,-8.375 -1.009,-0.954 -2.302,-2.063 -4.227,-1.916 -1.924,0.148 -3.276,0.601 -5.269,2.148 -1.621,1.259 -3.355,8.502 0.407,7.475 C 0.036,-8.036 0,-4.014 0,-4.014 Z"
             style="fill:#ffaaa8;fill-opacity:1;fill-rule:nonzero;stroke:none"
             id="path636" /></g></g></g><g
       id="g638"><g
         id="g640"
         clip-path="url(#clipPath644)"><g
           id="g646"
           transform="translate(229.061,243.9773)"><path
             d="m 0,0 c 3.934,-0.79 6.258,-3.677 10.992,-11.037 4.734,-7.36 12.084,-19.934 12.084,-19.934 l 18.381,-7.035 -0.787,-8.267 c 0,0 -20.053,3.558 -22.796,5.597 -2.744,2.039 -13.367,17.418 -13.367,17.418 z"
             style="fill:#ffaaa8;fill-opacity:1;fill-rule:nonzero;stroke:none"
             id="path648" /></g><g
           id="g650"
           transform="translate(225.7726,245.4906)"><path
             d="m 0,0 c 4.082,-0.723 8.117,-1.715 10.625,-5.6 2.507,-3.885 11.656,-18.747 11.656,-18.747 0,0 -3.338,-7.82 -9.412,-9.004 l -8.744,12.593 z"
             style="fill:#e7e7e7;fill-opacity:1;fill-rule:nonzero;stroke:none"
             id="path652" /></g><g
           id="g654"
           transform="translate(210.8107,245.1551)"><path
             d="m 0,0 c -1.401,-0.337 -2.814,-0.425 -4.048,-0.673 -6.072,-1.22 -7.195,-4.376 -7.338,-11.708 -0.24,-12.271 -0.033,-40.67 -0.033,-40.67 5.407,-3.939 25.392,-6.345 36.77,1.965 0,0 -0.579,32.672 -0.579,38.46 0,5.788 -3.216,12.742 -12.095,13.258 z"
             style="fill:#f5f5f5;fill-opacity:1;fill-rule:nonzero;stroke:none"
             id="path656" /></g><path
           d="m 197.987,78.551 h 7.851 v 13.44 h -7.851 z"
           style="fill:#ffaaa8;fill-opacity:1;fill-rule:nonzero;stroke:none"
           id="path658" /><g
           id="g660"
           transform="translate(230.0978,88.7284)"><path
             d="M 0,0 7.846,-0.27 8.239,13.953 0,14.223 Z"
             style="fill:#ffaaa8;fill-opacity:1;fill-rule:nonzero;stroke:none"
             id="path662" /></g><g
           id="g664"
           transform="translate(237.2952,194.0692)"><path
             d="m 0,0 c 0,0 0,0 0,0 l -1.405,31.894 -24.704,-3.981 c 0,0 0.222,-5.848 -0.874,-15.103 -0.467,-3.94 -4.245,-9.307 -10.944,-11.082 0,0 -0.41,-4.775 -0.06,-15.487 0.122,-3.719 -1.624,-44.85 -1.624,-44.85 -0.183,-2.158 -2.26,-5.993 -2.421,-13.764 -0.234,-11.268 2.388,-36.425 2.388,-36.425 0,0 3.811,-2.227 8.741,-0.173 0,0 5.277,36.158 6.684,47.312 1.228,9.734 6.353,37.106 6.353,37.106 l 6.001,-32.904 c 0,0 -1.448,-5.806 -0.973,-12.477 0.367,-5.16 5.144,-31.001 5.144,-31.001 0,0 3.695,-2.508 9.065,-0.694 0,0 0.468,40.564 0.559,45.297 C 2.033,-50.935 0,-0.003 0,0"
             style="fill:#2b454e;fill-opacity:1;fill-rule:nonzero;stroke:none"
             id="path666" /></g><g
           id="g668"
           transform="translate(235.8904,225.9631)"><path
             d="m 0,0 c -0.259,6.312 -1.14,12.138 -6.582,17.596 -1.475,1.48 -3.502,2.28 -5.591,2.28 h -1.163 c 0,0 5.456,-4.334 7.592,-10.614 1.852,-5.446 1.735,-12.24 1.735,-12.24 z"
             style="fill:#2b454e;fill-opacity:1;fill-rule:nonzero;stroke:none"
             id="path670" /></g><g
           id="g672"
           transform="translate(205.8378,82.4263)"><path
             d="m 0,0 c 0,0 -0.001,1.121 0,1.121 0.421,0.01 0.682,-0.409 0.843,-1.419 0.115,-0.723 0.221,-1.27 0.459,-2.221 0.364,-1.454 0.691,-2.343 1.371,-4.018 1.11,-2.735 2.042,-3.754 4.583,-6.951 0.603,-0.758 1.964,-1.963 2.438,-2.808 0.475,-0.845 0.642,-3.195 -0.164,-3.733 -2.965,-1.976 -7.466,-2.031 -10.65,-1.097 -2.449,0.718 -4.217,2.674 -4.623,5.194 -0.117,0.724 -0.074,1.464 -0.157,2.192 -0.189,1.661 -1.023,3.179 -1.966,4.56 -0.546,0.802 -1.141,1.584 -1.508,2.483 -0.659,1.613 -0.131,3.429 0.291,5.036 0.364,1.388 0.758,2.914 1.232,2.784 0.001,-0.169 0,-0.856 0,-0.856 0.57,-0.632 2.147,-1.259 3.925,-1.327 C -2.777,-1.104 0.009,-0.876 0,0"
             style="fill:#1a2e35;fill-opacity:1;fill-rule:nonzero;stroke:none"
             id="path674" /></g><g
           id="g676"
           transform="translate(238.0275,90.8795)"><path
             d="m 0,0 c 0.408,-0.014 0.74,-0.589 1.639,-1.562 1.086,-1.177 2.864,-2.446 4.618,-3.323 2.94,-1.472 8.655,-3.736 11.242,-4.901 1.616,-0.728 1.54,-2.68 -0.13,-3.791 -1.671,-1.11 -5.704,-1.911 -10.546,-0.828 -2.638,0.59 -6.072,3.026 -8.246,2.895 -2.173,-0.131 -6.24,-0.1 -7.845,1.006 -1.604,1.106 -0.962,3.468 -0.509,5.497 0.495,2.215 1.114,5.669 1.847,5.518 v -0.764 c 0.944,-1.429 5.815,-2.011 7.888,-0.959 z"
             style="fill:#1a2e35;fill-opacity:1;fill-rule:nonzero;stroke:none"
             id="path678" /></g><g
           id="g680"
           transform="translate(219.4293,169.5164)"><path
             d="m 0,0 c 0,0 6.275,1.768 10.932,6.268 0,0 -2.109,-3.949 -8.382,-7.625 l 3.035,-29.269 z"
             style="fill:#1a2e35;fill-opacity:1;fill-rule:nonzero;stroke:none"
             id="path682" /></g><g
           id="g684"
           transform="translate(213.9283,271.254)"><path
             d="m 0,0 c 0,-5.959 4.831,-10.789 10.789,-10.789 5.959,0 10.79,4.83 10.79,10.789 0,5.959 -4.831,10.789 -10.79,10.789 C 4.831,10.789 0,5.959 0,0"
             style="fill:#1a2e35;fill-opacity:1;fill-rule:nonzero;stroke:none"
             id="path686" /></g><g
           id="g688"
           transform="translate(206.067,263.5824)"><path
             d="m 0,0 c 0,0 1.748,-8.214 2.449,-9.564 0.702,-1.35 2.15,-1.733 2.15,-1.733 l -0.122,5.778 z"
             style="fill:#1a2e35;fill-opacity:1;fill-rule:nonzero;stroke:none"
             id="path690" /></g><g
           id="g692"
           transform="translate(208.2613,275.35)"><path
             d="m 0,0 c 0,0 -1.883,0.323 -3.351,-1.178 -1.439,-1.472 -0.635,-6.078 1.157,-10.59 l 3.293,-0.378 z"
             style="fill:#1a2e35;fill-opacity:1;fill-rule:nonzero;stroke:none"
             id="path694" /></g><g
           id="g696"
           transform="translate(210.3481,263.2016)"><path
             d="m 0,0 c -0.66,-0.394 -1.602,0.874 -2.417,1.726 -0.814,0.852 -3.473,2.017 -4.799,-0.778 -1.351,-2.848 1.171,-6.61 3.264,-7.267 3.607,-1.133 4.148,1.181 4.148,1.181 l 0.267,-13.409 c 4.484,-5.75 16.93,-5.264 11.744,0.742 l -0.01,3.96 c 0,0 3.268,-0.496 4.863,-0.25 2.652,0.41 4.321,2.503 5.126,5.375 1.292,4.612 1.783,8.336 0.687,17.406 C 21.671,18.628 10.107,18.731 3.863,14.801 -2.381,10.871 0,0 0,0"
             style="fill:#ffaaa8;fill-opacity:1;fill-rule:nonzero;stroke:none"
             id="path698" /></g><g
           id="g700"
           transform="translate(211.1809,220.0418)"><path
             d="m 0,0 c 0.184,8.156 -1.682,20.255 -4.418,24.441 0,0 1.938,0.955 4.048,0.672 0,0 5.135,-8 4.916,-25.113 z"
             style="fill:#2b454e;fill-opacity:1;fill-rule:nonzero;stroke:none"
             id="path702" /></g><g
           id="g704"
           transform="translate(210.3482,262.0906)"><path
             d="m 0,0 c -0.332,-0.006 -1.595,2.089 -2.417,2.837 -1.139,1.037 0.33,10.422 0.33,10.422 0,0 -1.409,2.653 0.785,5.068 1.56,1.717 3.736,3.814 10.817,2.977 5.048,-0.597 10.541,-2.171 14.979,0.009 0.665,-2.761 0.128,-5.842 -2.631,-8.024 0,0 -1.607,-1.036 -5.832,-1.551 C 11.806,11.224 5.224,11.837 4.324,11.96 3.099,12.128 2.838,10.941 2.177,7.696 1.597,4.848 1.116,0.022 0,0"
             style="fill:#1a2e35;fill-opacity:1;fill-rule:nonzero;stroke:none"
             id="path706" /></g><g
           id="g708"
           transform="translate(208.2677,274.6201)"><path
             d="m 0,0 -3.993,2.143 c 0.567,1.145 1.92,1.592 3.023,1 C 0.132,2.551 0.567,1.144 0,0"
             style="fill:#1a2e35;fill-opacity:1;fill-rule:nonzero;stroke:none"
             id="path710" /></g><g
           id="g712"
           transform="translate(222.5452,249.3565)"><path
             d="m 0,0 c 0,0 -5.921,1.193 -7.992,2.293 -1.385,0.737 -2.526,2.014 -2.861,2.832 0,0 0.387,-1.757 1.625,-3.34 C -7.714,-0.15 0,-1.576 0,-1.576 Z"
             style="fill:#ff9090;fill-opacity:1;fill-rule:nonzero;stroke:none"
             id="path714" /></g><g
           id="g716"
           transform="translate(222.3244,263.9317)"><path
             d="m 0,0 c 0,-0.681 -0.531,-1.232 -1.187,-1.23 -0.655,0.002 -1.186,0.556 -1.186,1.237 0,0.68 0.531,1.231 1.186,1.229 C -0.531,1.234 0,0.681 0,0"
             style="fill:#1a2e35;fill-opacity:1;fill-rule:nonzero;stroke:none"
             id="path718" /></g><g
           id="g720"
           transform="translate(221.0659,268.4117)"><path
             d="M 0,0 -2.539,-1.401 C -2.913,-0.672 -2.648,0.233 -1.947,0.62 -1.246,1.007 -0.374,0.729 0,0"
             style="fill:#1a2e35;fill-opacity:1;fill-rule:nonzero;stroke:none"
             id="path722" /></g><g
           id="g724"
           transform="translate(222.0089,256.485)"><path
             d="M 0,0 2.709,-1.016 C 2.441,-1.793 1.617,-2.195 0.869,-1.914 0.121,-1.634 -0.268,-0.776 0,0"
             style="fill:#ff9090;fill-opacity:1;fill-rule:nonzero;stroke:none"
             id="path726" /></g><g
           id="g728"
           transform="translate(232.9061,267.4239)"><path
             d="m 0,0 -2.315,1.783 c 0.472,0.663 1.373,0.801 2.012,0.309 C 0.337,1.599 0.472,0.663 0,0"
             style="fill:#1a2e35;fill-opacity:1;fill-rule:nonzero;stroke:none"
             id="path730" /></g><g
           id="g732"
           transform="translate(232.1935,264.2694)"><path
             d="m 0,0 c 0,-0.681 -0.531,-1.231 -1.187,-1.229 -0.655,0.001 -1.186,0.555 -1.186,1.236 0,0.681 0.531,1.231 1.186,1.229 C -0.531,1.235 0,0.681 0,0"
             style="fill:#1a2e35;fill-opacity:1;fill-rule:nonzero;stroke:none"
             id="path734" /></g><g
           id="g736"
           transform="translate(225.8357,265.1679)"><path
             d="m 0,0 0.39,-7.136 3.726,1.27 z"
             style="fill:#ff9090;fill-opacity:1;fill-rule:nonzero;stroke:none"
             id="path738" /></g><g
           id="g740"
           transform="translate(282.4598,251.9134)"><path
             d="m 0,0 c 0.015,2.192 1.838,5.262 1.276,6.898 l -4.06,2.345 -8.134,-20.45 -8.298,-4.718 -4.099,5.982 12.265,18.307 -4.06,2.346 c -0.515,-0.239 -1.029,-0.504 -1.556,-0.804 -9.269,-5.269 -16.841,-18.25 -16.912,-28.995 -0.036,-5.421 1.845,-9.223 4.905,-10.991 l -0.001,-0.001 4.047,-2.337 0.469,1.228 c 0.1,0.001 0.196,-0.008 0.297,-0.004 v -95.152 c -5.695,-6.347 -9.666,-15.265 -9.717,-23.034 -0.027,-4.03 1.002,-7.162 2.784,-9.244 l 4.06,-2.345 4.074,22.796 8.297,4.717 4.1,-5.981 -8.205,-20.653 4.06,-2.345 c 0,0 14.337,21.399 14.408,32.144 0.021,3.156 -0.617,5.753 -1.75,7.73 l 1.013,0.852 -4.028,2.327 0.005,-0.012 c -1.417,0.86 -3.092,1.282 -4.957,1.207 v 95.152 C -4.022,-16.687 -0.051,-7.77 0,0"
             style="fill:#375a64;fill-opacity:1;fill-rule:nonzero;stroke:none"
             id="path742" /></g><g
           id="g744"
           transform="translate(258.5986,125.5676)"><path
             d="M 0,0 4.06,-2.345 V 92.807 L 0,95.152 Z"
             style="fill:#1a2e35;fill-opacity:1;fill-rule:nonzero;stroke:none"
             id="path746" /></g><g
           id="g748"
           transform="translate(276.8032,131.3814)"><path
             d="m 0,0 v 95.152 c 5.695,6.347 9.666,15.265 9.717,23.035 0.027,4.029 -1.002,7.161 -2.784,9.243 l -8.134,-20.451 -8.298,-4.717 -4.099,5.981 8.205,20.653 c -0.515,-0.238 -1.029,-0.504 -1.556,-0.803 -9.27,-5.27 -16.841,-18.251 -16.912,-28.995 -0.052,-7.876 3.941,-12.336 9.717,-12.105 V -8.159 c -5.696,-6.347 -9.666,-15.265 -9.717,-23.035 -0.027,-4.029 1.002,-7.161 2.784,-9.243 l 8.133,20.451 8.298,4.717 4.1,-5.981 -8.205,-20.653 c 0.514,0.238 1.029,0.504 1.556,0.803 9.269,5.27 16.841,18.251 16.912,28.995 C 9.769,-4.229 5.776,0.231 0,0"
             style="fill:#2b454e;fill-opacity:1;fill-rule:nonzero;stroke:none"
             id="path750" /></g><g
           id="g752"
           transform="translate(270.3926,115.1089)"><path
             d="m 0,0 1.765,1.003 4.1,-5.981 -8.206,-20.653 -4.06,2.345 8.205,20.653 z"
             style="fill:#1a2e35;fill-opacity:1;fill-rule:nonzero;stroke:none"
             id="path754" /></g><g
           id="g756"
           transform="translate(276.8032,209.5993)"><path
             d="m 0,0 c 0,-1.529 -2.322,-3.234 -4.027,-4.3 -1.705,-1.065 -3.852,-2.557 -3.045,-5.648 0.807,-3.091 4.132,-3.877 5.816,-3.062 1.683,0.816 3.35,2.234 3.771,5.081 C 2.936,-5.082 3.896,1.745 0,2.54 Z"
             style="fill:#ffaaa8;fill-opacity:1;fill-rule:nonzero;stroke:none"
             id="path758" /></g><g
           id="g760"
           transform="translate(183.6288,201.4225)"><path
             d="M 0,0 C 6.758,30.346 10.988,36.963 20.4,40.47 L 19.123,22.223 c 0,0 -8.825,-19.664 -10.154,-26.617 -1.167,-6.109 -2.473,-13.791 -2.272,-19.016 0.036,-0.926 0.436,-1.799 1.078,-2.466 1.723,-1.792 2.218,-3.311 3.352,-5.309 0.888,-1.564 1.835,-2.136 1.576,-2.497 -0.333,-0.465 -1.403,-1.084 -2.767,-0.262 -0.686,0.413 -1.499,1.235 -2.504,2.301 0,0 0.224,-2.726 1.688,-5.849 1.983,-4.233 1.567,-6.422 -4.231,-5.02 -3.634,0.878 -5.965,3.84 -6.687,12.514 -0.208,2.499 -0.526,6.441 -0.295,9.61 C -1.493,-12.135 -1.088,-4.884 0,0"
             style="fill:#ffaaa8;fill-opacity:1;fill-rule:nonzero;stroke:none"
             id="path762" /></g><g
           id="g764"
           transform="translate(204.8536,243.9773)"><path
             d="m 0,0 c 0,0 -3.692,0 -6.792,-2.085 -2.364,-1.59 -6.294,-7.997 -8.784,-15.929 -2.49,-7.932 -3.798,-12.334 -3.798,-12.334 0,0 4.078,-6.213 12.878,-3.758 0,0 4.956,12.402 4.672,11.612 0,0 6.558,12.223 1.824,22.494"
             style="fill:#e7e7e7;fill-opacity:1;fill-rule:nonzero;stroke:none"
             id="path766" /></g></g></g></g></svg>
