<svg width="499" height="312" viewBox="0 0 499 312" fill="none" xmlns="http://www.w3.org/2000/svg">
<path d="M0 15C0 6.71573 6.71573 0 15 0H484C492.284 0 499 6.71573 499 15V297C499 305.284 492.284 312 484 312H15C6.71572 312 0 305.284 0 297V15Z" fill="#DDCFFF"/>
<path d="M15 45C15 42.2386 17.2386 40 20 40H383C385.761 40 388 42.2386 388 45V292C388 294.761 385.761 297 383 297H20C17.2386 297 15 294.761 15 292V45Z" fill="#F0F0F0"/>
<path d="M31 20C31 24.4183 27.4183 28 23 28C18.5817 28 15 24.4183 15 20C15 15.5817 18.5817 12 23 12C27.4183 12 31 15.5817 31 20Z" fill="#F0F0F0"/>
<path d="M56 20C56 24.4183 52.4183 28 48 28C43.5817 28 40 24.4183 40 20C40 15.5817 43.5817 12 48 12C52.4183 12 56 15.5817 56 20Z" fill="#F0F0F0"/>
<path d="M80 20C80 24.4183 76.4183 28 72 28C67.5817 28 64 24.4183 64 20C64 15.5817 67.5817 12 72 12C76.4183 12 80 15.5817 80 20Z" fill="#F0F0F0"/>
<path d="M15 0.25H484C492.146 0.25 498.75 6.8538 498.75 15V297C498.75 305.146 492.146 311.75 484 311.75H15C6.8538 311.75 0.25 305.146 0.25 297V15C0.25 6.8538 6.8538 0.25 15 0.25ZM20 40.25H383C385.623 40.25 387.75 42.3766 387.75 45V292C387.75 294.623 385.623 296.75 383 296.75H20C17.3767 296.75 15.25 294.623 15.25 292V45C15.25 42.3766 17.3766 40.25 20 40.25ZM383 39.75H20C17.1005 39.75 14.75 42.1005 14.75 45V292C14.75 294.9 17.1005 297.25 20 297.25H383C385.9 297.25 388.25 294.9 388.25 292V45C388.25 42.1005 385.9 39.75 383 39.75ZM30.75 20C30.75 24.2802 27.2802 27.75 23 27.75C18.7198 27.75 15.25 24.2802 15.25 20C15.25 15.7198 18.7198 12.25 23 12.25C27.2802 12.25 30.75 15.7198 30.75 20ZM23 28.25C27.5563 28.25 31.25 24.5563 31.25 20C31.25 15.4437 27.5563 11.75 23 11.75C18.4437 11.75 14.75 15.4437 14.75 20C14.75 24.5563 18.4437 28.25 23 28.25ZM55.75 20C55.75 24.2802 52.2802 27.75 48 27.75C43.7198 27.75 40.25 24.2802 40.25 20C40.25 15.7198 43.7198 12.25 48 12.25C52.2802 12.25 55.75 15.7198 55.75 20ZM48 28.25C52.5564 28.25 56.25 24.5563 56.25 20C56.25 15.4437 52.5564 11.75 48 11.75C43.4436 11.75 39.75 15.4437 39.75 20C39.75 24.5563 43.4436 28.25 48 28.25ZM79.75 20C79.75 24.2802 76.2802 27.75 72 27.75C67.7198 27.75 64.25 24.2802 64.25 20C64.25 15.7198 67.7198 12.25 72 12.25C76.2802 12.25 79.75 15.7198 79.75 20ZM72 28.25C76.5564 28.25 80.25 24.5563 80.25 20C80.25 15.4437 76.5564 11.75 72 11.75C67.4436 11.75 63.75 15.4437 63.75 20C63.75 24.5563 67.4436 28.25 72 28.25Z" stroke="#ADADAD" stroke-width="0.5"/>
</svg>
