<svg xmlns="http://www.w3.org/2000/svg" version="1.1" viewBox="0 0 100 100" width="100" height="100" opacity="1">
    <defs>
        <linearGradient gradientTransform="rotate(214, 0.5, 0.5)" x1="50%" y1="0%" x2="50%" y2="100%" id="ffflux-gradient">
            <stop stop-color="#7665de" stop-opacity="1" offset="0%"/>
            <stop stop-color="#0ca7e7" stop-opacity="1" offset="100%"/>
        </linearGradient>
        <filter id="ffflux-filter" x="-20%" y="-20%" width="140%" height="140%" filterUnits="objectBoundingBox"
                primitiveUnits="userSpaceOnUse" color-interpolation-filters="sRGB">
            <feTurbulence type="fractalNoise" baseFrequency="0.006 0.006" numOctaves="2" seed="2" stitchTiles="stitch"
                          x="0%" y="0%" width="100%" height="100%" result="turbulence">
            </feTurbulence>
            <feGaussianBlur stdDeviation="69 44" x="0%" y="0%" width="100%" height="100%" in="turbulence" result="blur">
            </feGaussianBlur>
            <feBlend mode="hard-light" x="0%" y="0%" width="100%" height="100%" in="SourceGraphic" in2="blur"
                     result="blend">
            </feBlend>
        </filter>
    </defs>
    <rect x="0.5" y="0.5" width="100" height="100" rx="15" fill="url(#ffflux-gradient)"/>
    <!--  center the next path -->
    <g transform="translate(18, 20)">
        <path d="M18.0971 5.0552C18.3407 2.64008 19.446 0.96503 21.6918 0.250244C22.3121 0.0729217 22.9545 -0.0109914 23.5986 0.00115205C29.7828 0.00115205 35.9681 0.00115205 42.1547 0.00115205C45.5834 0.00115205 47.3278 1.51375 47.9104 5.0552H48.7297C51.6711 5.0552 54.609 5.03354 57.5575 5.0552C61.8549 5.09491 65.1671 7.91795 65.891 12.1381C65.9758 12.7102 66.0112 13.2888 65.9969 13.8673C65.9969 24.3027 65.9969 34.7381 65.9969 45.1735C65.9969 49.5561 63.4792 52.8809 59.4784 53.7834C58.7707 53.9296 58.0499 53.9985 57.328 53.9892C41.1154 54.0036 24.9027 54.0036 8.69012 53.9892C4.25855 53.9892 0.921626 51.2419 0.144777 46.9749C0.0518552 46.3781 0.0116735 45.774 0.0247179 45.1699C0.00823931 34.7489 0 24.3207 0 13.8853C0 9.50275 2.52829 6.1707 6.52907 5.27902C7.2615 5.13087 8.00714 5.0619 8.75368 5.07325C11.8434 5.0552 14.9367 5.0552 18.0971 5.0552ZM18.0971 8.50278C17.9967 8.48345 17.8953 8.47019 17.7934 8.46307C14.7001 8.46307 11.6068 8.46307 8.51357 8.46307C5.33554 8.46307 3.29102 10.5858 3.29102 13.8167C3.29102 24.3075 3.29102 34.7982 3.29102 45.289C3.29102 48.4694 5.35673 50.603 8.47472 50.6066C24.8215 50.6066 41.1671 50.6066 57.5116 50.6066C60.6225 50.6066 62.6918 48.4658 62.6918 45.289C62.6918 34.7982 62.6918 24.3075 62.6918 13.8167C62.6918 10.5677 60.6331 8.47751 57.4657 8.46307C54.5031 8.46307 51.5369 8.46307 48.5708 8.46307C48.3448 8.46307 48.1188 8.48834 47.9069 8.50278C47.296 12.0478 45.5728 13.5207 42.0735 13.5207C35.9152 13.5207 29.7545 13.5207 23.5915 13.5207C22.9735 13.537 22.3563 13.4629 21.7588 13.3005C19.4707 12.6002 18.3619 10.9143 18.0971 8.51V8.50278ZM32.9879 3.4018C29.791 3.4018 26.5965 3.4018 23.4044 3.4018C22.0237 3.4018 21.4446 4.0119 21.4305 5.43786C21.4305 6.36203 21.4305 7.28258 21.4305 8.20314C21.4587 9.48109 22.0625 10.1092 23.3055 10.1092C29.7745 10.1092 36.2483 10.1092 42.7267 10.1092C43.9556 10.1092 44.5594 9.46665 44.5841 8.19231C44.5841 7.29703 44.5841 6.3873 44.5841 5.50645C44.5841 3.97941 44.0085 3.39819 42.5255 3.39458C39.3404 3.39458 36.1612 3.39699 32.9879 3.4018Z" fill="white"/>
        <path d="M18.7152 33.5744C17.2695 33.5765 15.8556 33.1409 14.6518 32.3226C13.448 31.5043 12.5081 30.3399 11.9507 28.9762C11.3933 27.6125 11.2434 26.1106 11.5198 24.6599C11.7962 23.2093 12.4866 21.8747 13.5039 20.8247C14.5212 19.7746 15.8199 19.056 17.2362 18.7594C18.6524 18.4629 20.1228 18.6017 21.462 19.1584C22.8012 19.7151 23.9492 20.6647 24.7611 21.8875C25.5731 23.1103 26.0127 24.5516 26.0246 26.0295C26.0297 27.0157 25.8447 27.9933 25.48 28.9063C25.1153 29.8194 24.5782 30.65 23.8994 31.3507C23.2206 32.0514 22.4133 32.6085 21.5238 32.99C20.6342 33.3716 19.6798 33.5702 18.7152 33.5744V33.5744ZM18.7152 30.181C19.511 30.176 20.2875 29.9299 20.9466 29.4739C21.6057 29.0179 22.1178 28.3723 22.4182 27.6188C22.7186 26.8654 22.7937 26.0378 22.6342 25.2407C22.4746 24.4435 22.0876 23.7126 21.5218 23.1403C20.9561 22.568 20.2372 22.18 19.4558 22.0253C18.6745 21.8706 17.8658 21.9561 17.132 22.2711C16.3982 22.5861 15.7722 23.1164 15.3331 23.795C14.894 24.4736 14.6615 25.27 14.6649 26.0836C14.6673 26.6247 14.7739 27.16 14.9788 27.6588C15.1837 28.1577 15.4828 28.6104 15.859 28.991C16.2351 29.3715 16.6811 29.6725 17.1712 29.8767C17.6613 30.0809 18.1859 30.1843 18.7152 30.181V30.181Z" fill="white"/>
        <path d="M29.1566 45.5164H25.8762C25.7243 43.1843 24.8733 41.2241 23.0513 39.7801C21.7799 38.765 20.2042 38.2306 18.5914 38.2675C14.8449 38.3072 12.4896 40.7006 11.4585 45.52H8.23462C8.36174 41.7909 9.8201 38.8018 12.8251 36.7621C16.4586 34.2964 20.304 34.1773 24.0576 36.4408C27.3663 38.4227 28.9765 41.5165 29.1566 45.5164Z" fill="white"/>
        <path d="M45.4458 20.2462C48.3342 20.2462 51.2204 20.2462 54.1041 20.2462C55.2235 20.2462 55.9191 20.7661 56.0498 21.6505C56.0905 21.8643 56.0892 22.0842 56.0459 22.2974C56.0026 22.5106 55.9181 22.7129 55.7974 22.8924C55.6768 23.0719 55.5224 23.2249 55.3432 23.3427C55.164 23.4605 54.9636 23.5406 54.7538 23.5783C54.5213 23.6251 54.2845 23.6457 54.0476 23.6396C48.2542 23.6396 42.4573 23.6396 36.6568 23.6396C35.4915 23.6396 34.7853 23.109 34.6688 22.1956C34.5204 21.0512 35.269 20.2534 36.5438 20.2462C39.1957 20.2282 41.8405 20.2462 44.5065 20.2462H45.4458Z" fill="white"/>
        <path d="M45.3647 30.3687C48.279 30.3687 51.191 30.3687 54.1007 30.3687C55.2165 30.3687 55.9157 30.885 56.0499 31.7658C56.0912 31.9798 56.0905 32.2 56.0476 32.4137C56.0048 32.6274 55.9208 32.8302 55.8005 33.0103C55.6802 33.1904 55.526 33.3443 55.3469 33.4628C55.1679 33.5814 54.9675 33.6623 54.7575 33.7008C54.5308 33.7466 54.2999 33.7672 54.0689 33.7622C48.2708 33.7622 42.4727 33.7622 36.6745 33.7622C35.5093 33.7622 34.803 33.2387 34.683 32.3182C34.5347 31.1774 35.2797 30.3723 36.551 30.3651C39.1287 30.3651 41.7064 30.3651 44.2841 30.3651L45.3647 30.3687Z" fill="white"/>
        <path d="M45.3998 40.4913C48.313 40.4913 51.2227 40.4913 54.1359 40.4913C55.3082 40.4913 56.018 41.0977 56.0674 42.0833C56.1027 42.4808 55.9926 42.8775 55.7585 43.1969C55.5244 43.5162 55.1828 43.7356 54.7997 43.8125C54.5734 43.8617 54.3425 43.8859 54.1112 43.8847C48.2848 43.8847 42.4608 43.8847 36.6391 43.8847C35.5197 43.8847 34.8241 43.3685 34.6864 42.4876C34.5098 41.3505 35.2549 40.5093 36.512 40.4949C38.3658 40.4732 40.2197 40.4949 42.077 40.4949L45.3998 40.4913Z" fill="white"/>
    </g>
</svg>