<svg xmlns="http://www.w3.org/2000/svg" version="1.1" viewBox="0 0 100 100" width="100" height="100" opacity="1">
    <defs>
        <linearGradient gradientTransform="rotate(214, 0.5, 0.5)" x1="50%" y1="0%" x2="50%" y2="100%" id="ffflux-gradient">
            <stop stop-color="#7665de" stop-opacity="1" offset="0%"/>
            <stop stop-color="#0ca7e7" stop-opacity="1" offset="100%"/>
        </linearGradient>
        <filter id="ffflux-filter" x="-20%" y="-20%" width="140%" height="140%" filterUnits="objectBoundingBox"
                primitiveUnits="userSpaceOnUse" color-interpolation-filters="sRGB">
            <feTurbulence type="fractalNoise" baseFrequency="0.006 0.006" numOctaves="2" seed="2" stitchTiles="stitch"
                          x="0%" y="0%" width="100%" height="100%" result="turbulence">
            </feTurbulence>
            <feGaussianBlur stdDeviation="69 44" x="0%" y="0%" width="100%" height="100%" in="turbulence" result="blur">
            </feGaussianBlur>
            <feBlend mode="hard-light" x="0%" y="0%" width="100%" height="100%" in="SourceGraphic" in2="blur"
                     result="blend">
            </feBlend>
        </filter>
    </defs>
    <rect x="0.5" y="0.5" width="100" height="100" rx="15" fill="url(#ffflux-gradient)"/>
    <!--  center the next path -->
    <g transform="translate(15, 15)">
        <path d="M20.7108 37.2532C21.234 34.8966 22.4627 33.203 24.5128 32.2342C25.3679 31.8311 26.2968 31.6238 27.2362 31.6266C28.1755 31.6293 29.1033 31.842 29.9562 32.2502C30.8092 32.6583 31.5674 33.2523 32.1791 33.9918C32.7908 34.7312 33.2417 35.5987 33.5011 36.5352C33.6567 37.102 33.8621 37.2875 34.4251 37.2669C35.6736 37.2223 36.9255 37.2669 38.2304 37.2669C38.2304 36.9234 38.2701 36.6967 38.2701 36.4562C38.2701 35.1027 38.2701 33.7457 38.2701 32.3922C38.2701 31.451 38.6212 31.08 39.5121 30.9906C41.9363 30.7399 43.6221 28.9295 43.632 26.5797C43.6419 24.23 41.9363 22.3818 39.4723 22.1448C38.6675 22.0658 38.2801 21.6776 38.2734 20.8462C38.2558 18.556 38.2558 16.2739 38.2734 13.9997C38.2734 13.1821 38.6874 12.7596 39.4657 12.6874C39.6588 12.6771 39.8522 12.6771 40.0453 12.6874H59.34C62.9201 12.6874 64.9999 14.862 64.9999 18.5858V59.1153C64.9999 62.8392 62.9201 65 59.3334 65H19.449C15.955 65 13.8188 62.8117 13.8188 59.2115C13.8188 52.4875 13.8188 45.7658 13.8188 39.0464C13.8188 37.5761 14.15 37.2566 15.5841 37.2532H20.7108ZM38.2635 62.5919C38.2635 61.1696 38.2337 59.8677 38.2635 58.5657C38.2801 58.0126 38.1012 57.8099 37.6011 57.6588C36.0942 57.231 34.7875 56.252 33.9224 54.9025C33.0574 53.5531 32.6924 51.9244 32.895 50.3176C33.2957 47.3392 34.9417 45.4326 37.6972 44.5257C37.9091 44.457 38.2271 44.2406 38.2304 44.0825C38.2734 42.6363 38.2569 41.19 38.2569 39.6613H37.3826C35.8823 39.6613 34.4019 39.6613 32.8851 39.6613C31.8915 39.6613 31.5405 39.2972 31.4544 38.2872C31.249 35.8207 29.4673 34.0377 27.1821 34.048C24.8969 34.0584 23.1284 35.8481 22.933 38.3112C22.8568 39.28 22.4992 39.6544 21.5553 39.6647C20.0319 39.6854 18.5084 39.6647 16.9883 39.6647H16.1438V59.2459C16.1438 61.4823 17.2433 62.6125 19.4092 62.6125H38.2867L38.2635 62.5919ZM62.675 37.2532V18.5171C62.675 16.1777 61.6119 15.0818 59.3433 15.0818H40.6348V19.7985C43.8075 20.702 45.8079 22.7631 45.9503 26.2018C46.1126 30.0013 44.0493 32.2926 40.6348 33.3232V37.2463H45.586C47.0366 37.2463 47.1823 37.4593 47.4505 38.9193C47.5923 39.7244 47.902 40.4877 48.358 41.1557C48.8741 41.8606 49.591 42.3793 50.4071 42.6382C51.2232 42.8972 52.0971 42.8833 52.9051 42.5985C53.7327 42.3379 54.4628 41.8192 54.9961 41.1129C55.5294 40.4067 55.8401 39.5472 55.8858 38.6513C55.9619 37.6414 56.3329 37.2566 57.3032 37.2463C58.777 37.2463 60.2541 37.2463 61.7279 37.2463L62.675 37.2532ZM40.5851 40.4308C40.5851 42.0901 40.5851 43.6188 40.5851 45.1475C40.5851 46.2296 40.2539 46.5868 39.2604 46.7036C39.118 46.7208 38.9722 46.7414 38.8298 46.7655C37.815 46.9143 36.8859 47.4377 36.213 48.2398C35.5402 49.0418 35.1688 50.0686 35.1669 51.1317C35.179 52.2072 35.5648 53.2421 36.2536 54.0461C36.9423 54.8502 37.8877 55.3694 38.9159 55.5083C40.4361 55.7075 40.605 55.9034 40.605 57.487V62.5575C40.9163 62.5575 41.1514 62.5919 41.3866 62.5919H59.5155C61.5821 62.5919 62.6949 61.441 62.6949 59.3008C62.6949 53.2822 62.6949 47.2647 62.6949 41.2484V40.4308C61.3271 40.4308 60.0289 40.4549 58.7207 40.4308C58.2306 40.4308 58.0583 40.606 57.949 41.0698C57.59 42.5166 56.7591 43.7899 55.5976 44.6734C54.7403 45.3453 53.7376 45.7896 52.6769 45.9675C51.6161 46.1455 50.5295 46.0517 49.5117 45.6944C48.4939 45.337 47.5758 44.727 46.8373 43.9173C46.0988 43.1077 45.5623 42.1231 45.2747 41.0492C45.2084 40.819 44.9633 40.4789 44.7944 40.472C43.4267 40.4102 42.0622 40.4308 40.595 40.4308H40.5851Z" fill="white"/>
        <path d="M26.7384 6.95394C27.7319 7.46923 28.689 7.80932 29.464 8.40363C31.6366 10.0766 32.5341 12.3886 32.0373 15.1402C31.5538 17.8301 29.9475 19.6061 27.4239 20.4134C26.8609 20.592 26.7152 20.8188 26.7284 21.3822C26.7616 22.9349 26.7284 24.4911 26.7284 26.0438C26.7284 27.4179 26.3973 27.7615 25.0493 27.7615C23.1373 27.7615 21.2275 27.7615 19.3199 27.7615C17.9951 27.7615 17.7401 27.5244 17.5845 26.1332C17.5092 25.3736 17.2444 24.6476 16.8162 24.0266C16.388 23.4055 15.8112 22.9109 15.1426 22.5916C14.474 22.2722 13.7367 22.1391 13.0034 22.2053C12.2701 22.2715 11.5661 22.5348 10.9608 22.9693C10.4315 23.3273 9.98977 23.8084 9.67074 24.3742C9.3517 24.9401 9.16407 25.5752 9.12272 26.2293C9.02005 27.4386 8.70543 27.758 7.52973 27.7615C5.50068 27.7615 3.47052 27.7615 1.43926 27.7615C0.405972 27.7443 0.00192764 27.3286 0.00192764 26.2534C0.00192764 19.3072 0.00192764 12.3622 0.00192764 5.41836C-0.0169984 4.70567 0.103606 3.99639 0.35645 3.33341C0.609293 2.67043 0.989124 2.06752 1.47298 1.56114C1.95684 1.05475 2.53467 0.655399 3.17154 0.387228C3.80841 0.119058 4.4911 -0.0123613 5.17833 0.000914285C11.898 0.000914285 18.6178 0.000914285 25.3342 0.000914285C26.3277 0.000914285 26.7317 0.42689 26.7384 1.47465C26.745 3.35719 26.7384 5.23629 26.7384 6.95394ZM24.4201 25.3396C24.4201 23.5636 24.4201 21.8665 24.4201 20.1695C24.4201 18.6923 24.6122 18.4518 26.0396 18.2595C27.0503 18.1349 27.9845 17.6384 28.6724 16.8602C29.3602 16.082 29.7562 15.0736 29.7882 14.0183C29.8203 12.963 29.4864 11.9308 28.8471 11.1092C28.2079 10.2876 27.3057 9.73104 26.3045 9.54071C24.4201 9.14909 24.4201 9.14909 24.4201 7.13601V2.45027C24.1187 2.45027 23.9068 2.41592 23.6948 2.41592C17.6143 2.40905 11.5238 2.40562 5.4234 2.40562C3.45286 2.40562 2.32021 3.59079 2.32021 5.64166C2.32021 11.9305 2.32021 18.2286 2.32021 24.5357V25.3602C3.72112 25.3602 4.99949 25.3362 6.29441 25.3602C6.77794 25.3602 6.95678 25.1884 7.0727 24.7247C7.4724 23.1562 8.42343 21.7997 9.73872 20.9218C10.5984 20.3308 11.5796 19.9569 12.6036 19.8301C13.6277 19.7032 14.6662 19.8269 15.6359 20.1912C16.6055 20.5555 17.4795 21.1504 18.1877 21.9281C18.8958 22.7058 19.4186 23.6448 19.714 24.6697C19.7901 24.9239 20.0452 25.3052 20.2207 25.3121C21.5885 25.3671 22.9596 25.3396 24.4201 25.3396Z" fill="white"/>
    </g>
</svg>