<svg xmlns="http://www.w3.org/2000/svg" version="1.1" viewBox="0 0 100 100" width="100" height="100" opacity="1">
    <defs>
        <linearGradient gradientTransform="rotate(214, 0.5, 0.5)" x1="50%" y1="0%" x2="50%" y2="100%" id="ffflux-gradient">
            <stop stop-color="#7665de" stop-opacity="1" offset="0%"/>
            <stop stop-color="#0ca7e7" stop-opacity="1" offset="100%"/>
        </linearGradient>
        <filter id="ffflux-filter" x="-20%" y="-20%" width="140%" height="140%" filterUnits="objectBoundingBox"
                primitiveUnits="userSpaceOnUse" color-interpolation-filters="sRGB">
            <feTurbulence type="fractalNoise" baseFrequency="0.006 0.006" numOctaves="2" seed="2" stitchTiles="stitch"
                          x="0%" y="0%" width="100%" height="100%" result="turbulence">
            </feTurbulence>
            <feGaussianBlur stdDeviation="69 44" x="0%" y="0%" width="100%" height="100%" in="turbulence" result="blur">
            </feGaussianBlur>
            <feBlend mode="hard-light" x="0%" y="0%" width="100%" height="100%" in="SourceGraphic" in2="blur"
                     result="blend">
            </feBlend>
        </filter>
    </defs>
    <rect x="0.5" y="0.5" width="100" height="100" rx="15" fill="url(#ffflux-gradient)"/>
    <!--  center the next path -->
    <g transform="translate(18, 18)">
        <path d="M33.1334 0C33.2928 0.05216 33.4521 0.107218 33.6115 0.153582C34.4181 0.391173 35.1298 0.875726 35.6465 1.53903C36.1632 2.20233 36.4589 3.01098 36.4919 3.85114C36.5321 4.6698 36.3147 5.48047 35.8703 6.16918C35.4259 6.85789 34.7768 7.38999 34.0143 7.6907C33.8251 7.7345 33.6598 7.84886 33.5521 8.01042C33.4444 8.17198 33.4024 8.36856 33.4347 8.56003C33.4579 10.2697 33.4347 11.9823 33.4347 13.692C33.4416 13.9031 33.431 14.1144 33.4029 14.3237C33.3808 14.5477 33.2727 14.7543 33.1014 14.9002C32.9301 15.0461 32.7089 15.1199 32.4843 15.1061C32.3738 15.1156 32.2625 15.1028 32.157 15.0685C32.0515 15.0342 31.954 14.979 31.8703 14.9063C31.7865 14.8336 31.7182 14.7449 31.6693 14.6453C31.6205 14.5457 31.5921 14.4373 31.586 14.3266C31.528 13.747 31.5483 13.1472 31.5483 12.5561C31.5483 11.1622 31.5483 9.7655 31.528 8.37167C31.512 8.25285 31.4696 8.13912 31.4039 8.03883C31.3383 7.93854 31.2509 7.85424 31.1484 7.79212C29.3837 7.00972 28.3868 5.52896 28.5085 3.79609C28.636 1.956 29.772 0.608533 31.6352 0.110115C31.7186 0.0808209 31.7991 0.0439622 31.8757 0L33.1334 0ZM32.4814 6.08533C32.8957 6.08818 33.3016 5.96811 33.6477 5.74028C33.9939 5.51245 34.2646 5.18711 34.4258 4.80539C34.5871 4.42367 34.6315 4.00271 34.5534 3.59576C34.4754 3.18881 34.2784 2.81413 33.9875 2.51911C33.6965 2.22409 33.3246 2.02198 32.9188 1.93833C32.5129 1.85468 32.0914 1.89325 31.7075 2.04917C31.3236 2.20508 30.9945 2.47134 30.7619 2.81427C30.5293 3.15719 30.4036 3.56139 30.4008 3.97575C30.3985 4.25099 30.4505 4.52397 30.5539 4.77906C30.6573 5.03415 30.81 5.26633 31.0033 5.4623C31.1966 5.65828 31.4266 5.81418 31.6803 5.92109C31.9339 6.028 32.2061 6.08381 32.4814 6.08533V6.08533Z" fill="white"/>
        <path d="M65.0001 33.1361L64.777 33.7881C64.5166 34.5668 64.0224 35.2462 63.3617 35.7336C62.701 36.2211 61.906 36.4929 61.0852 36.512C60.2868 36.5396 59.4991 36.3215 58.8286 35.8873C58.158 35.453 57.6369 34.8235 57.3355 34.0836C57.1326 33.5649 56.8631 33.4577 56.3647 33.4664C54.7159 33.4925 53.067 33.4664 51.4182 33.4664C51.2501 33.4664 51.0792 33.4664 50.9111 33.4664C50.2446 33.4171 49.8766 33.0694 49.8824 32.5043C49.8882 31.9393 50.2533 31.58 50.9314 31.5742C52.7048 31.5742 54.4812 31.5452 56.2546 31.5742C56.8342 31.5742 57.1239 31.4611 57.3673 30.8758C57.6716 30.1488 58.1907 29.5322 58.8552 29.1086C59.5197 28.6849 60.2978 28.4745 61.0852 28.5054C61.8939 28.5228 62.6781 28.7857 63.3339 29.2593C63.9897 29.7329 64.4859 30.3947 64.7567 31.1569C64.8407 31.3916 64.9189 31.6321 65.0001 31.8697V33.1361ZM58.9003 32.4986C58.8997 32.9137 59.0223 33.3198 59.2526 33.6652C59.4829 34.0107 59.8106 34.28 60.1941 34.4392C60.5775 34.5983 60.9996 34.6401 61.4068 34.5593C61.8141 34.4784 62.1882 34.2785 62.4818 33.9849C62.7753 33.6914 62.9752 33.3173 63.0561 32.91C63.1369 32.5028 63.0951 32.0807 62.936 31.6972C62.7768 31.3138 62.5075 30.9861 62.162 30.7558C61.8166 30.5255 61.4106 30.4029 60.9954 30.4035C60.4397 30.4035 59.9068 30.6242 59.5139 31.0171C59.121 31.41 58.9003 31.9429 58.9003 32.4986Z" fill="white"/>
        <path d="M25.4456 43.7564C25.4456 42.8146 25.4456 42.0177 25.4456 41.2151C25.4166 39.7517 26.0252 38.7027 27.3784 38.0826C27.8566 37.8623 28.3231 37.6131 28.7954 37.3755C29.7952 36.8742 29.8502 36.0194 28.9403 35.3471C28.1725 34.7945 27.547 34.0673 27.1157 33.2253C26.6844 32.3834 26.4596 31.4509 26.4598 30.5049C26.4367 29.5109 26.4338 28.517 26.4598 27.5231C26.5178 25.0918 28.1985 23.4401 30.621 23.4227C32.861 23.4053 35.1039 23.4227 37.3468 23.4227C38.1379 23.4227 38.5291 23.7125 38.5349 24.4282C38.5349 26.6277 38.5812 28.83 38.4856 31.0265C38.4016 32.8898 37.4511 34.3415 35.9501 35.434C35.7869 35.5389 35.655 35.6858 35.5683 35.8593C35.4817 36.0329 35.4435 36.2266 35.4577 36.42C35.472 36.6135 35.5381 36.7995 35.6493 36.9585C35.7604 37.1175 35.9124 37.2435 36.0891 37.3233C36.6165 37.587 37.1439 37.8594 37.6771 38.1115C38.9869 38.7288 39.5955 39.7691 39.581 41.2035C39.581 42.0062 39.581 42.8088 39.581 43.7477C39.8302 43.5883 39.9982 43.4898 40.1605 43.3768C43.0161 41.3675 44.9647 38.3135 45.5836 34.8771C46.2025 31.4407 45.442 27.8988 43.4669 25.0194C43.3713 24.8803 43.2669 24.747 43.1771 24.605C42.8352 24.066 42.9076 23.5212 43.3597 23.2054C43.8117 22.8895 44.3507 23.0025 44.7361 23.5212C46.0119 25.2173 46.9019 27.1715 47.3441 29.2472C47.7942 31.3031 47.8127 33.43 47.3984 35.4934C46.9841 37.5567 46.146 39.5117 44.9372 41.2344C43.7284 42.9572 42.1752 44.4103 40.3758 45.5018C38.5765 46.5934 36.5701 47.2995 34.4838 47.5757C26.0165 48.7667 18.0534 42.3597 17.3869 33.8054C17.0426 29.9051 18.2203 26.0228 20.6736 22.9711C23.1268 19.9194 26.6654 17.9349 30.5486 17.433C34.5388 16.9027 38.1842 17.8793 41.4558 20.2265C41.8296 20.4931 42.1223 20.8524 41.9282 21.2929C41.7722 21.6225 41.4919 21.8768 41.1487 21.9999C40.8908 22.0724 40.4996 21.8753 40.2388 21.7101C38.557 20.5276 36.6324 19.7356 34.6055 19.3919C27.6508 18.1748 20.5831 23.1185 19.4443 30.0876C18.575 35.4427 20.3426 39.8154 24.5879 43.1855C24.811 43.3478 25.0631 43.4956 25.4456 43.7564ZM28.5086 39.6995C27.5059 40.0675 27.3495 40.2791 27.3495 41.3078C27.3495 42.238 27.3784 43.1682 27.3495 44.0954C27.3113 44.2983 27.3551 44.508 27.4714 44.6786C27.5876 44.8492 27.7668 44.9667 27.9696 45.0054C30.9587 46.0805 34.2323 46.06 37.2077 44.9474C37.3606 44.9171 37.496 44.8292 37.5861 44.702C37.6761 44.5747 37.7139 44.4178 37.6916 44.2635C37.6655 43.2725 37.6916 42.2785 37.6916 41.2875C37.6916 40.2965 37.4946 40.0415 36.5093 39.6908C34.3418 42.1684 30.7949 42.2756 28.5086 39.6995ZM28.3984 28.8763C28.2101 30.954 28.4332 32.7767 30.2878 33.9387C30.9482 34.3953 31.7334 34.637 32.5362 34.6308C33.339 34.6245 34.1203 34.3707 34.7736 33.904C36.263 32.9332 36.7643 31.4727 36.6136 29.6674C33.8527 30.1114 31.024 29.839 28.3984 28.8763V28.8763ZM28.4854 26.8479C30.9141 27.8889 33.5924 28.2039 36.1964 27.7549C36.2994 27.7181 36.3919 27.6566 36.4656 27.5757C36.5394 27.4949 36.5922 27.3972 36.6194 27.2912C36.6716 26.7671 36.6716 26.239 36.6194 25.7149C36.5915 25.6215 36.5404 25.5368 36.4711 25.4684C36.4017 25.4 36.3162 25.3502 36.2224 25.3237C34.2809 25.3005 32.3394 25.286 30.4008 25.3237C29.4243 25.3439 28.8041 25.8742 28.4883 26.8479H28.4854ZM31.4237 36.4714C31.4846 37.4393 31.2209 38.2506 30.3342 38.7375C30.6119 39.0362 30.9482 39.2745 31.3221 39.4374C31.6961 39.6004 32.0996 39.6845 32.5075 39.6845C32.9154 39.6845 33.3189 39.6004 33.6928 39.4374C34.0668 39.2745 34.4031 39.0362 34.6808 38.7375C33.7709 38.2506 33.5217 37.419 33.6029 36.4772L31.4237 36.4714Z" fill="white"/>
        <path d="M15.7818 14.4512C17.277 15.9465 18.6795 17.349 20.0676 18.7167C20.235 18.8486 20.3592 19.0274 20.4242 19.2303C20.4893 19.4332 20.4922 19.651 20.4327 19.8556C20.2154 20.5481 19.3692 20.6988 18.7868 20.1279C17.5349 18.8964 16.3005 17.6475 15.0689 16.4043C14.9066 16.2391 14.7791 16.0508 14.472 15.7117C14.0025 16.2507 13.6171 16.7462 13.1767 17.1896C12.203 18.169 11.0932 18.1633 10.1108 17.1896C9.67325 16.7607 9.24148 16.3203 8.81261 15.8856C8.62563 15.7038 8.47727 15.4861 8.37641 15.2455C8.27555 15.005 8.22426 14.7466 8.22561 14.4858C8.22696 14.225 8.28093 13.9671 8.38428 13.7277C8.48764 13.4882 8.63824 13.272 8.8271 13.0921C10.247 11.6413 11.6833 10.206 13.1361 8.78605C13.3154 8.60381 13.5292 8.45908 13.765 8.36029C14.0008 8.2615 14.254 8.21062 14.5096 8.21062C14.7653 8.21062 15.0184 8.2615 15.2542 8.36029C15.4901 8.45908 15.7039 8.60381 15.8832 8.78605C16.3961 9.25839 16.8916 9.75391 17.3639 10.2668C17.5457 10.4461 17.6901 10.6597 17.7886 10.8953C17.8872 11.1308 17.9379 11.3836 17.9379 11.6389C17.9379 11.8942 17.8872 12.147 17.7886 12.3826C17.6901 12.6181 17.5457 12.8317 17.3639 13.011C16.8626 13.5152 16.3207 13.9586 15.7818 14.4512ZM14.5618 10.2031C13.1129 11.652 11.664 13.1008 10.2151 14.5497L11.5916 15.9378L15.9382 11.5911L14.5618 10.2031Z" fill="white"/>
        <path d="M50.5346 15.79C49.0162 17.3171 47.6195 18.7312 46.2082 20.1366C45.7591 20.5829 45.1795 20.6032 44.7941 20.2294C44.4087 19.8556 44.429 19.2615 44.8927 18.7805C45.0231 18.6414 45.1592 18.5081 45.2954 18.3748L49.2045 14.4541C48.7003 13.9905 48.199 13.5674 47.7412 13.1037C46.8544 12.1996 46.8573 11.0753 47.7412 10.1712C48.1816 9.71334 48.6279 9.26419 49.0886 8.82662C49.9261 8.03553 51.0649 8.00076 51.8821 8.79764C53.3503 10.2291 54.7992 11.678 56.2287 13.1443C56.5865 13.5011 56.7888 13.9849 56.7915 14.4902C56.7943 14.9956 56.5972 15.4815 56.2432 15.8421C55.7738 16.3579 55.2754 16.8506 54.7654 17.3258C54.585 17.514 54.3684 17.6637 54.1286 17.766C53.8888 17.8683 53.6308 17.9211 53.3701 17.9211C53.1094 17.9211 52.8514 17.8683 52.6116 17.766C52.3718 17.6637 52.1552 17.514 51.9748 17.3258C51.4793 16.8535 51.0417 16.3348 50.5346 15.79ZM50.5346 10.2407L49.0857 11.5969L53.3628 15.8508L54.7915 14.5121L50.5346 10.2407Z" fill="white"/>
        <path d="M14.4892 49.2042C16.0019 47.6829 17.4131 46.2514 18.8359 44.8373C18.9198 44.7414 19.022 44.6632 19.1366 44.6075C19.2512 44.5518 19.3758 44.5196 19.503 44.5128C19.6302 44.5061 19.7575 44.5249 19.8774 44.5682C19.9972 44.6115 20.1072 44.6783 20.2007 44.7648C20.5948 45.1357 20.5832 45.7182 20.1689 46.1818C20.0558 46.3064 19.9312 46.4224 19.8124 46.5412C18.6533 47.7003 17.501 48.8517 16.3554 49.9953C16.2047 50.146 16.0308 50.2677 15.7295 50.514C16.2742 51.0008 16.7669 51.3978 17.2131 51.8441C18.1636 52.7975 18.1665 53.9073 17.2392 54.8665C16.7843 55.3359 16.3293 55.8112 15.8396 56.2458C15.4771 56.598 14.9896 56.7918 14.4843 56.7847C13.979 56.7777 13.4971 56.5703 13.1446 56.2081C11.6726 54.7766 10.2237 53.3278 8.79798 51.8615C8.61633 51.6814 8.47241 51.4669 8.37463 51.2305C8.27686 50.9942 8.22719 50.7407 8.22854 50.4849C8.22989 50.2291 8.28223 49.9762 8.38249 49.7408C8.48275 49.5055 8.62893 49.2926 8.81247 49.1144C9.27322 48.6218 9.75425 48.1436 10.2614 47.68C10.4426 47.4928 10.6597 47.344 10.8996 47.2423C11.1396 47.1407 11.3975 47.0883 11.6581 47.0883C11.9187 47.0883 12.1766 47.1407 12.4165 47.2423C12.6565 47.344 12.8735 47.4928 13.0548 47.68C13.5156 48.1349 13.956 48.6479 14.4892 49.2042ZM10.2092 50.4213L14.5182 54.71L15.9207 53.4147L11.5538 49.068L10.2092 50.4213Z" fill="white"/>
        <path d="M50.4996 49.239C51.0125 48.6884 51.4269 48.2074 51.876 47.764C52.7975 46.8512 53.9044 46.8512 54.852 47.764C55.2944 48.1871 55.7281 48.6218 56.1531 49.068C56.9732 49.9374 56.9993 51.0646 56.1763 51.9079C54.7699 53.3451 53.349 54.767 51.9137 56.1734C51.7318 56.3683 51.5117 56.5236 51.2672 56.6299C51.0227 56.7361 50.7589 56.791 50.4923 56.791C50.2257 56.791 49.962 56.7361 49.7175 56.6299C49.4729 56.5236 49.2529 56.3683 49.071 56.1734C48.5957 55.7242 48.1292 55.2606 47.68 54.7824C47.4877 54.5987 47.3349 54.3776 47.2312 54.1327C47.1274 53.8877 47.0749 53.6241 47.0768 53.3582C47.0787 53.0922 47.135 52.8294 47.2422 52.5859C47.3494 52.3425 47.5053 52.1236 47.7003 51.9426C48.1669 51.4587 48.674 51.0095 49.1985 50.514C47.7235 49.0506 46.3326 47.6597 44.9271 46.2833C44.5562 45.9181 44.3911 45.5183 44.6142 45.0314C44.904 44.4258 45.669 44.3476 46.2109 44.8807C47.4772 46.1268 48.7319 47.3902 49.978 48.6479C50.1315 48.7927 50.2619 48.9724 50.4996 49.239ZM50.4358 54.8114L54.7999 50.4445L53.3915 49.042L48.9522 53.4784L50.1113 54.5129C50.2272 54.6231 50.3489 54.7361 50.4358 54.8114V54.8114Z" fill="white"/>
        <path d="M33.4522 53.8407C33.4522 54.71 33.4783 55.5793 33.4522 56.4487C33.4191 56.6402 33.4608 56.8371 33.5686 56.9989C33.6765 57.1606 33.8422 57.2748 34.0317 57.318C34.8932 57.6654 35.6052 58.3042 36.0438 59.1229C36.4823 59.9417 36.6194 60.8884 36.4311 61.798C36.253 62.6823 35.7811 63.4804 35.0921 64.0627C34.4032 64.645 33.5375 64.9772 32.6359 65.0054C31.7343 65.0336 30.8496 64.7561 30.1255 64.218C29.4015 63.6799 28.8807 62.9128 28.6477 62.0414C28.3837 61.0935 28.4831 60.0812 28.9264 59.2027C29.3696 58.3242 30.1249 57.6428 31.0441 57.2919C31.2132 57.2517 31.3607 57.1489 31.4569 57.0043C31.5532 56.8596 31.591 56.6839 31.5628 56.5124C31.5416 54.7139 31.5416 52.9163 31.5628 51.1197C31.5447 50.7875 31.6476 50.4601 31.8526 50.1982C31.9818 50.0878 32.1352 50.0095 32.3004 49.9698C32.4656 49.93 32.6378 49.9298 32.8031 49.9692C32.9659 50.0651 33.1061 50.195 33.2142 50.35C33.3222 50.5051 33.3955 50.6816 33.429 50.8676C33.5072 51.8557 33.458 52.8525 33.458 53.8465L33.4522 53.8407ZM32.5249 58.9031C32.1105 58.898 31.7038 59.0159 31.3564 59.2419C31.009 59.4679 30.7364 59.792 30.5732 60.1729C30.4099 60.5539 30.3634 60.9748 30.4394 61.3822C30.5154 61.7897 30.7106 62.1654 31.0002 62.4619C31.2898 62.7584 31.6608 62.9624 32.0664 63.048C32.4719 63.1335 32.8938 63.0969 33.2785 62.9427C33.6632 62.7885 33.9935 62.5236 34.2277 62.1816C34.4618 61.8396 34.5893 61.4358 34.5939 61.0214C34.6001 60.4662 34.3857 59.9313 33.9977 59.5341C33.6098 59.1369 33.0801 58.91 32.5249 58.9031Z" fill="white"/>
        <path d="M11.1654 33.4606C10.2961 33.4606 9.42673 33.4838 8.5574 33.4606C8.36576 33.4268 8.16848 33.4682 8.00657 33.5762C7.84466 33.6841 7.73059 33.8503 7.68807 34.0402C7.34221 34.903 6.70392 35.6167 5.88492 36.0564C5.06592 36.4961 4.11837 36.6338 3.2081 36.4453C2.32367 36.2676 1.52532 35.796 0.942747 35.1072C0.360173 34.4185 0.027606 33.5529 -0.000927681 32.6513C-0.0294613 31.7496 0.247715 30.8648 0.785573 30.1405C1.32343 29.4163 2.09037 28.8952 2.96179 28.6619C3.90934 28.3985 4.92106 28.4978 5.79931 28.9404C6.67757 29.383 7.35927 30.1371 7.71125 31.0555C7.74893 31.2249 7.84938 31.3738 7.99238 31.4722C8.13539 31.5705 8.31034 31.6111 8.48206 31.5858C10.3221 31.5626 12.1622 31.5858 14.0023 31.5858C14.5819 31.5858 15.0049 31.777 15.1064 32.3942C15.2078 33.0115 14.7934 33.4577 14.0835 33.478C13.1127 33.5041 12.139 33.478 11.1654 33.478V33.4606ZM6.0856 32.4928C6.08444 32.0776 5.96012 31.6721 5.72838 31.3276C5.49664 30.9831 5.16789 30.7151 4.78376 30.5575C4.39963 30.4 3.97739 30.3599 3.57049 30.4425C3.16359 30.525 2.79033 30.7264 2.49797 31.0212C2.20561 31.316 2.00729 31.691 1.92812 32.0985C1.84895 32.5061 1.89249 32.928 2.05323 33.3108C2.21397 33.6936 2.48468 34.0201 2.83108 34.249C3.17749 34.4779 3.58401 34.5988 3.9992 34.5965C4.27433 34.5954 4.54654 34.5401 4.80029 34.4337C5.05405 34.3274 5.28437 34.1721 5.47811 33.9768C5.67185 33.7814 5.82521 33.5498 5.92945 33.2952C6.03368 33.0405 6.08674 32.7679 6.0856 32.4928Z" fill="white"/>
    </g>
</svg>