<svg xmlns="http://www.w3.org/2000/svg" version="1.1" viewBox="0 0 100 100" width="100" height="100" opacity="1">
    <defs>
        <linearGradient gradientTransform="rotate(214, 0.5, 0.5)" x1="50%" y1="0%" x2="50%" y2="100%" id="ffflux-gradient">
            <stop stop-color="#7665de" stop-opacity="1" offset="0%"/>
            <stop stop-color="#0ca7e7" stop-opacity="1" offset="100%"/>
        </linearGradient>
        <filter id="ffflux-filter" x="-20%" y="-20%" width="140%" height="140%" filterUnits="objectBoundingBox"
                primitiveUnits="userSpaceOnUse" color-interpolation-filters="sRGB">
            <feTurbulence type="fractalNoise" baseFrequency="0.006 0.006" numOctaves="2" seed="2" stitchTiles="stitch"
                          x="0%" y="0%" width="100%" height="100%" result="turbulence">
            </feTurbulence>
            <feGaussianBlur stdDeviation="69 44" x="0%" y="0%" width="100%" height="100%" in="turbulence" result="blur">
            </feGaussianBlur>
            <feBlend mode="hard-light" x="0%" y="0%" width="100%" height="100%" in="SourceGraphic" in2="blur"
                     result="blend">
            </feBlend>
        </filter>
    </defs>
    <rect x="0.5" y="0.5" width="100" height="100" rx="15" fill="url(#ffflux-gradient)"/>
    <!--  center the next path -->
    <g transform="translate(18, 18)">
      <path d="M49.3868 65H15.6161C15.5482 64.9543 15.4764 64.9146 15.4017 64.8812C13.7065 64.3019 12.7937 62.9144 13.0516 61.2431C13.3095 59.5717 14.628 58.5116 16.4159 58.5116C17.3867 58.5116 18.3603 58.4826 19.3311 58.5116C19.5174 58.5413 19.7081 58.5026 19.868 58.4024C20.0278 58.3023 20.1459 58.1476 20.2004 57.967C20.5191 57.2545 20.8872 56.5651 21.2349 55.867C21.5015 55.3311 21.771 54.7952 22.081 54.1696H3.68017C1.79372 54.1696 0.695466 53.3672 0.0927288 51.5626C0.0669065 51.5049 0.0358683 51.4496 0 51.3975L0 2.69095C0.695466 0.648841 2.16464 0 4.25683 0C23.2759 0.0424837 42.293 0.0511735 61.3082 0.0260695C63.6409 0.0260695 65 1.39037 65 3.73373V50.4242C65 52.8342 63.6438 54.1898 61.2155 54.1898H42.9305C43.655 55.6381 44.3128 56.9822 45.0054 58.3059C45.072 58.4334 45.3502 58.5087 45.5327 58.5116C46.6339 58.5319 47.7322 58.5116 48.8333 58.529C49.5369 58.5405 50.2173 58.7821 50.7704 59.2168C51.3236 59.6515 51.719 60.2554 51.8963 60.9361C52.0783 61.6382 52.0204 62.3811 51.7316 63.0466C51.4428 63.7121 50.9398 64.262 50.3025 64.609C50.0098 64.7567 49.6911 64.8668 49.3868 65ZM62.8383 45.4971V3.73084C62.8383 2.58957 62.421 2.18694 61.2532 2.18694H3.74682C2.55584 2.18694 2.16464 2.58378 2.16174 3.79167V45.5029H8.0819C8.25286 45.5029 8.42094 45.5029 8.5919 45.5029C9.29606 45.5521 9.75101 45.9924 9.75101 46.6007C9.75101 47.209 9.28737 47.6522 8.56872 47.6609C6.68517 47.6782 4.80161 47.6609 2.92096 47.6609C2.67754 47.6609 2.43413 47.684 2.16174 47.6956V50.2418C2.16174 51.664 2.50368 52.0029 3.91779 52.0029H61.1054C61.3376 52.0122 61.5702 52.0025 61.8009 51.9739C62.3369 51.8899 62.7571 51.5626 62.7861 51.0412C62.8527 49.9347 62.8064 48.8224 62.8064 47.6609H13.692C13.4174 47.6696 13.1425 47.6609 12.869 47.6348C12.6146 47.608 12.3785 47.49 12.2045 47.3026C12.0305 47.1152 11.9303 46.8711 11.9225 46.6155C11.9147 46.3599 11.9999 46.1102 12.1622 45.9125C12.3245 45.7149 12.553 45.5827 12.8053 45.5406C13.0989 45.499 13.3956 45.4835 13.692 45.4942H62.8383V45.4971ZM22.3563 58.4739H42.6408C41.9424 57.072 41.2846 55.7308 40.5949 54.4187C40.5282 54.346 40.4465 54.2886 40.3555 54.2506C40.2644 54.2126 40.1662 54.1948 40.0675 54.1985C35.0158 54.1869 29.9649 54.1869 24.9151 54.1985C24.747 54.1985 24.4862 54.2565 24.4254 54.3723C23.7299 55.7048 23.0605 57.0633 22.3563 58.4739ZM32.4348 62.8362H48.2335C48.4656 62.8479 48.6983 62.8392 48.9289 62.8102C49.1876 62.7678 49.4217 62.6322 49.5871 62.429C49.7525 62.2258 49.8378 61.969 49.8267 61.7073C49.8157 61.4456 49.7091 61.1969 49.5271 61.0084C49.3451 60.8199 49.1004 60.7045 48.8391 60.684C48.6507 60.6667 48.4566 60.684 48.2596 60.684H16.7347C16.523 60.6724 16.3107 60.6782 16.1 60.7014C15.8652 60.7221 15.6454 60.8254 15.4798 60.9931C15.3142 61.1608 15.2136 61.3818 15.1959 61.6168C15.1456 61.8589 15.1892 62.1111 15.3177 62.3224C15.4463 62.5337 15.6503 62.6884 15.8885 62.7551C16.1527 62.8265 16.4265 62.8558 16.6999 62.842C21.9449 62.8517 27.1898 62.8497 32.4348 62.8362Z" fill="white"/>
    </g>
</svg>